<?xml version="1.0" encoding="UTF-8"?>
<svg version="1.1" xmlns="http://www.w3.org/2000/svg" width="100" height="100">
<path d="M0 0 C10.3326201 7.72846381 17.48149648 17.74524416 21.1015625 30.203125 C22.3006939 40.54368665 22.7903969 52.18653807 18.40234375 61.796875 C18.01175781 62.68375 17.62117188 63.570625 17.21875 64.484375 C11.02460982 77.11831532 0.4175816 86.07085642 -12.7265625 90.9609375 C-17.9656721 92.09228912 -23.00224899 92.16522648 -28.34765625 92.171875 C-29.36859375 92.19636719 -30.38953125 92.22085938 -31.44140625 92.24609375 C-42.78628621 92.28928492 -51.62271406 88.57041628 -60.59765625 81.796875 C-61.41363281 81.19875 -62.22960937 80.600625 -63.0703125 79.984375 C-71.4553668 72.72683187 -77.81609883 61.47056011 -78.81201172 50.41796875 C-79.71860733 35.25720477 -77.9925322 23.12610852 -68.59765625 10.796875 C-67.85515625 9.765625 -67.11265625 8.734375 -66.34765625 7.671875 C-48.91426029 -10.55394805 -21.07430078 -13.79905594 0 0 Z " fill="#F1C114" transform="translate(78.59765625,8.203125)"/>
<path d="M0 0 C6.88763211 4.67839162 12.03004098 10.7918374 14 19 C14.14632123 21.69231072 14.09311284 24.29972768 14 27 C10.77454501 25.51257214 7.85805839 23.6395072 4.87255859 21.72460938 C-2.02974364 17.3564605 -7.75486169 14.76192697 -16 14 C-17.66997936 13.68368079 -19.33779622 13.35491896 -21 13 C-20.67 13.99 -20.34 14.98 -20 16 C-16.88797646 17.04624751 -16.88797646 17.04624751 -13.125 17.8125 C-3.44810074 20.13860008 4.6373247 24.23429838 12 31 C11.55448481 35.90066708 9.37094401 39.52991057 6 43 C-1.78484907 48.63078889 -8.39317595 51.00306545 -18 50 C-25.24125299 47.94282586 -31.54136868 43.95248327 -35.54296875 37.51953125 C-38.6474912 31.35396705 -39.94320615 25.8854049 -39 19 C-38.67 18.34 -38.34 17.68 -38 17 C-37.34 17 -36.68 17 -36 17 C-35.67 16.01 -35.34 15.02 -35 14 C-34.67 14.66 -34.34 15.32 -34 16 C-32.68 16 -31.36 16 -30 16 C-30 15.01 -30 14.02 -30 13 C-29.34 13.33 -28.68 13.66 -28 14 C-28 14.33 -28 14.66 -28 15 C-26.35 15.33 -24.7 15.66 -23 16 C-23.33 15.01 -23.66 14.02 -24 13 C-27.96 13 -31.92 13 -36 13 C-33.25944776 6.14861939 -29.28978714 2.72252708 -23 -1 C-15.17407972 -4.33017884 -7.63409221 -3.39292987 0 0 Z " fill="#322B6D" transform="translate(63,27)"/>
<path d="M0 0 C9.96926131 7.45668325 15.97601063 16.28593607 20.40234375 27.796875 C20.61328125 30.77734375 20.61328125 30.77734375 20.40234375 32.796875 C17.07703676 31.54347046 14.10741839 30.12958724 11.09375 28.25 C10.27414795 27.74106201 9.4545459 27.23212402 8.61010742 26.70776367 C7.73717041 26.15967041 6.8642334 25.61157715 5.96484375 25.046875 C5.05774658 24.48137939 4.15064941 23.91588379 3.21606445 23.33325195 C-7.09792383 16.88888495 -17.3532398 10.3511064 -27.59765625 3.796875 C-35.3029967 7.84133672 -42.60648095 12.28912626 -49.84765625 17.109375 C-56.64245087 21.5843184 -63.44191415 26.03303744 -70.41015625 30.234375 C-71.3242627 30.79088745 -71.3242627 30.79088745 -72.25683594 31.35864258 C-76.34862348 33.796875 -76.34862348 33.796875 -78.59765625 33.796875 C-75.96305727 20.34655391 -70.07283317 9.41721408 -58.97265625 1.171875 C-40.90293629 -10.96572812 -18.45032223 -12.08092412 0 0 Z " fill="#078E44" transform="translate(78.59765625,8.203125)"/>
<path d="M0 0 C7.4326159 3.40488549 14.17529086 7.29113992 20.91137695 11.88623047 C28.52599058 17.07620864 36.34298385 21.94172636 44.15332031 26.83007812 C45.78403341 27.86317928 47.39379308 28.92919539 49 30 C52.48905441 29.64641949 55.05260059 27.89187422 57.97265625 26.04296875 C58.94630127 25.43018066 59.91994629 24.81739258 60.9230957 24.18603516 C61.95909912 23.52651855 62.99510254 22.86700195 64.0625 22.1875 C65.1249292 21.5176709 66.1873584 20.8478418 67.28198242 20.15771484 C72.43088202 16.90889896 77.56680381 13.63974416 82.703125 10.37109375 C83.56929443 9.82106689 84.43546387 9.27104004 85.32788086 8.7043457 C86.95328057 7.67116198 88.57658309 6.63466968 90.19750977 5.59448242 C90.92252686 5.13275635 91.64754395 4.67103027 92.39453125 4.1953125 C93.02206299 3.79328613 93.64959473 3.39125977 94.29614258 2.97705078 C96 2 96 2 99 1 C98.798492 11.27690779 93.23010054 20.05573233 86.3125 27.375 C75.54613628 37.45205385 64.76996228 41.35694035 50.25 41.375 C49.2290625 41.39949219 48.208125 41.42398438 47.15625 41.44921875 C35.81137004 41.49240992 26.97494219 37.77354128 18 31 C17.18402344 30.401875 16.36804688 29.80375 15.52734375 29.1875 C7.44240951 22.18972075 2.42902226 12.27663266 0 2 C0 1.34 0 0.68 0 0 Z " fill="#078E44" transform="translate(0,59)"/>
<path d="M0 0 C5.69051363 0.5381371 11.34865884 1.1400133 17 2 C17 2.66 17 3.32 17 4 C18.2065625 4.309375 18.2065625 4.309375 19.4375 4.625 C24.85815336 6.717182 29.87835838 9.87835838 34 14 C34 15.32 34 16.64 34 18 C31.58477907 16.85996871 29.35135296 15.59989996 27.07421875 14.1953125 C18.56490662 8.99354153 10.77093846 6.08008774 1 4 C0.67 2.68 0.34 1.36 0 0 Z " fill="#B3CEC5" transform="translate(42,40)"/>
<path d="M0 0 C11.37035675 5.2945936 11.37035675 5.2945936 14 9 C14 10.32 14 11.64 14 13 C11.20772271 11.64142562 8.52570555 10.1801359 5.875 8.5625 C5.19179687 8.15128906 4.50859375 7.74007812 3.8046875 7.31640625 C2 6 2 6 0 3 C0 2.01 0 1.02 0 0 Z " fill="#A8C7BD" transform="translate(62,45)"/>
<path d="M0 0 C0.90105469 0.00902344 1.80210938 0.01804688 2.73046875 0.02734375 C3.41753906 0.03894531 4.10460938 0.05054688 4.8125 0.0625 C5.1425 1.3825 5.4725 2.7025 5.8125 4.0625 C3.4375 4.25 3.4375 4.25 0.8125 4.0625 C0.1525 3.0725 -0.5075 2.0825 -1.1875 1.0625 C-1.1875 2.0525 -1.1875 3.0425 -1.1875 4.0625 C-2.8375 3.7325 -4.4875 3.4025 -6.1875 3.0625 C-6.5175 3.7225 -6.8475 4.3825 -7.1875 5.0625 C-7.8475 5.0625 -8.5075 5.0625 -9.1875 5.0625 C-8.875 3.125 -8.875 3.125 -8.1875 1.0625 C-5.17259443 0.05753148 -3.14568308 -0.04085303 0 0 Z " fill="#B1CBC0" transform="translate(34.1875,38.9375)"/>
<path d="M0 0 C0.66 0.33 1.32 0.66 2 1 C-2.29 5.29 -6.58 9.58 -11 14 C-11 9.40845608 -8.09282279 7.18698368 -5 4 C-3.3719908 2.61973133 -1.71956118 1.26438322 0 0 Z " fill="#036330" transform="translate(20,9)"/>
<path d="M0 0 C2.64 0.33 5.28 0.66 8 1 C7.67 1.99 7.34 2.98 7 4 C5.02 4 3.04 4 1 4 C0.67 2.68 0.34 1.36 0 0 Z " fill="#DBE8E3" transform="translate(42,40)"/>
<path d="M0 0 C0.99 0.66 1.98 1.32 3 2 C3 3.32 3 4.64 3 6 C1.68 5.34 0.36 4.68 -1 4 C-1 1 -1 1 0 0 Z " fill="#CBDED3" transform="translate(73,52)"/>
<path d="M0 0 C2.475 0.99 2.475 0.99 5 2 C4.67 3.32 4.34 4.64 4 6 C3.34 6 2.68 6 2 6 C0 3 0 3 0 0 Z " fill="#95BFAF" transform="translate(62,45)"/>
</svg>
