<svg height="134.66666" id="svg4518" inkscape:version="1.0 (4035a4fb49, 2020-05-01)" version="1.1" viewBox="0 0 458.56265 134.66665" width="458.56265" xml:space="preserve" xmlns="http://www.w3.org/2000/svg" xmlns:cc="http://creativecommons.org/ns#" xmlns:dc="http://purl.org/dc/elements/1.1/" xmlns:inkscape="http://www.inkscape.org/namespaces/inkscape" xmlns:rdf="http://www.w3.org/1999/02/22-rdf-syntax-ns#" xmlns:sodipodi="http://sodipodi.sourceforge.net/DTD/sodipodi-0.dtd" xmlns:svg="http://www.w3.org/2000/svg"><metadata id="metadata4524"></metadata><defs id="defs4522"><clipPath clipPathunits="userSpaceOnUse" id="clipPath4536"><path d="M 780.426,478.016 V 364.113 h 79.828 c 20.441,0 36.18,4.66 47.215,13.996 11.031,9.329 16.551,22.832 16.551,40.52 0,17.844 -5.442,32.043 -16.309,42.59 -10.871,10.547 -26.121,16.14 -45.75,16.797 h -3.168 z m 0,44.047 h 63.281 c 18.328,0 32.813,4.343 43.441,13.023 10.622,8.68 15.942,20.965 15.942,36.867 0,17.524 -5.598,30.547 -16.793,39.067 -11.199,8.519 -27.504,12.777 -48.922,12.777 H 780.426 Z M 721.285,316.898 v 354.356 h 116.09 c 39.102,0 69.688,-8.074 91.754,-24.219 22.062,-16.144 33.101,-40.277 33.101,-72.406 0,-15.574 -4.421,-29.609 -13.265,-42.098 -8.844,-12.496 -21.137,-21.988 -36.871,-28.476 22.715,-3.731 40.195,-13.551 52.445,-29.446 12.25,-15.91 18.375,-34.566 18.375,-55.98 0,-33.262 -10.871,-58.535 -32.609,-75.813 -21.742,-17.281 -51.762,-25.918 -90.051,-25.918 z" id="path4534" inkscape:connector-curvature="0"></path></clipPath><linearGradient gradientTransform="matrix(0,-354.356,-354.356,0,852.1,671.252)" gradientUnits="userSpaceOnUse" id="linearGradient4542" spreadmethod="pad" x1="0" x2="1" y1="0" y2="0"><stop id="stop4538" offset="0" style="stop-opacity:1;stop-color:#51ade5"></stop><stop id="stop4540" offset="1" style="stop-opacity:1;stop-color:#2e3591"></stop></linearGradient><clipPath clipPathunits="userSpaceOnUse" id="clipPath4552"><path d="m 1095.6,316.898 h -59.14 V 580.23 h 59.14 z m 0,327.829 h -59.14 v 51.839 h 59.14 z" id="path4550" inkscape:connector-curvature="0"></path></clipPath><linearGradient gradientTransform="matrix(0,-379.668,-379.668,0,1066.03,696.565)" gradientUnits="userSpaceOnUse" id="linearGradient4558" spreadmethod="pad" x1="0" x2="1" y1="0" y2="0"><stop id="stop4554" offset="0" style="stop-opacity:1;stop-color:#51ade5"></stop><stop id="stop4556" offset="1" style="stop-opacity:1;stop-color:#2e3591"></stop></linearGradient><clipPath clipPathunits="userSpaceOnUse" id="clipPath4568"><path d="M 1237.49,644.238 V 580.23 h 47.21 v -43.808 h -47.21 V 390.883 c 0,-10.871 2.35,-18.621 7.06,-23.238 4.7,-4.629 10.95,-6.938 18.74,-6.938 3.24,0 6.4,0.281 9.49,0.852 3.08,0.566 6,1.336 8.76,2.308 l 6.33,-43.316 c -5.04,-2.762 -11,-4.906 -17.89,-6.453 -6.9,-1.539 -14.08,-2.313 -21.54,-2.313 -21.75,0 -38.82,6.367 -51.23,19.106 -12.41,12.734 -18.62,32.734 -18.62,59.992 v 145.539 h -40.16 v 43.808 h 40.16 v 64.008 z" id="path4566" inkscape:connector-curvature="0"></path></clipPath><linearGradient gradientTransform="matrix(0,-332.45,-332.45,0,1213.15,644.237)" gradientUnits="userSpaceOnUse" id="linearGradient4574" spreadmethod="pad" x1="0" x2="1" y1="0" y2="0"><stop id="stop4570" offset="0" style="stop-opacity:1;stop-color:#51ade5"></stop><stop id="stop4572" offset="1" style="stop-opacity:1;stop-color:#2e3591"></stop></linearGradient><clipPath clipPathunits="userSpaceOnUse" id="clipPath4584"><path d="m 1439.74,359.004 c 13.46,0 24.86,4.219 34.19,12.652 9.33,8.438 13.99,19.149 13.99,32.125 h 53.55 l 0.48,-1.457 c 0.65,-24.664 -9.12,-45.922 -29.32,-63.765 -20.2,-17.852 -44.5,-26.774 -72.89,-26.774 -37.97,0 -67.26,12.531 -87.86,37.606 -20.61,25.066 -30.91,56.66 -30.91,94.797 v 8.515 c 0,37.965 10.3,69.52 30.91,94.676 20.6,25.144 49.81,37.719 87.61,37.719 30.67,0 55.57,-9.207 74.72,-27.625 19.14,-18.414 28.39,-41.821 27.74,-70.211 l -0.48,-1.457 h -53.55 c 0,14.437 -4.46,26.687 -13.38,36.742 -8.93,10.066 -20.61,15.094 -35.05,15.094 -21.09,0 -36.26,-8.157 -45.51,-24.461 -9.25,-16.305 -13.87,-36.465 -13.87,-60.477 v -8.515 c 0,-24.504 4.58,-44.829 13.75,-60.969 9.16,-16.149 24.46,-24.215 45.88,-24.215 z" id="path4582" inkscape:connector-curvature="0"></path></clipPath><linearGradient gradientTransform="matrix(0,-273.309,-273.309,0,1431.48,585.096)" gradientUnits="userSpaceOnUse" id="linearGradient4590" spreadmethod="pad" x1="0" x2="1" y1="0" y2="0"><stop id="stop4586" offset="0" style="stop-opacity:1;stop-color:#51ade5"></stop><stop id="stop4588" offset="1" style="stop-opacity:1;stop-color:#2e3591"></stop></linearGradient><clipPath clipPathunits="userSpaceOnUse" id="clipPath4600"><path d="m 1639.79,445.891 c 0,-25.805 5.03,-46.735 15.09,-62.793 10.06,-16.067 25.63,-24.094 46.73,-24.094 20.6,0 36.06,8.066 46.36,24.215 10.3,16.14 15.46,37.031 15.46,62.672 V 451 c 0,25.148 -5.16,45.875 -15.46,62.18 -10.3,16.304 -25.92,24.461 -46.85,24.461 -20.61,0 -35.98,-8.157 -46.12,-24.461 -10.14,-16.305 -15.21,-37.032 -15.21,-62.18 z M 1580.65,451 c 0,39.258 10.75,71.426 32.25,96.5 21.49,25.066 50.9,37.598 88.22,37.598 37.81,0 67.45,-12.532 88.96,-37.598 21.49,-25.074 32.24,-57.242 32.24,-96.5 v -5.109 c 0,-39.594 -10.75,-71.844 -32.24,-96.746 -21.51,-24.911 -50.99,-37.36 -88.47,-37.36 -37.65,0 -67.22,12.492 -88.71,37.485 -21.5,24.984 -32.25,57.191 -32.25,96.621 z" id="path4598" inkscape:connector-curvature="0"></path></clipPath><linearGradient gradientTransform="matrix(0,-273.309,-273.309,0,1701.49,585.096)" gradientUnits="userSpaceOnUse" id="linearGradient4606" spreadmethod="pad" x1="0" x2="1" y1="0" y2="0"><stop id="stop4602" offset="0" style="stop-opacity:1;stop-color:#51ade5"></stop><stop id="stop4604" offset="1" style="stop-opacity:1;stop-color:#2e3591"></stop></linearGradient><clipPath clipPathunits="userSpaceOnUse" id="clipPath4616"><path d="m 1936.95,316.898 h -59.14 V 580.23 h 59.14 z m 0,327.829 h -59.14 v 51.839 h 59.14 z" id="path4614" inkscape:connector-curvature="0"></path></clipPath><linearGradient gradientTransform="matrix(0,-379.668,-379.668,0,1907.38,696.565)" gradientUnits="userSpaceOnUse" id="linearGradient4622" spreadmethod="pad" x1="0" x2="1" y1="0" y2="0"><stop id="stop4618" offset="0" style="stop-opacity:1;stop-color:#51ade5"></stop><stop id="stop4620" offset="1" style="stop-opacity:1;stop-color:#2e3591"></stop></linearGradient><clipPath clipPathunits="userSpaceOnUse" id="clipPath4632"><path d="m 2056.7,580.23 3.4,-37.964 c 8.6,13.464 19.43,23.968 32.49,31.511 13.06,7.551 27.79,11.321 44.17,11.321 27.42,0 48.8,-8.438 64.14,-25.305 15.33,-16.879 23,-43.246 23,-79.102 V 316.898 h -59.15 v 163.305 c 0,20.445 -3.97,34.957 -11.92,43.567 -7.95,8.597 -19.96,12.898 -36.02,12.898 -12.65,0 -23.6,-2.402 -32.86,-7.184 -9.24,-4.785 -16.63,-11.398 -22.14,-19.836 v -192.75 h -59.14 V 580.23 Z" id="path4630" inkscape:connector-curvature="0"></path></clipPath><linearGradient gradientTransform="matrix(0,-268.199,-268.199,0,2113.28,585.096)" gradientUnits="userSpaceOnUse" id="linearGradient4638" spreadmethod="pad" x1="0" x2="1" y1="0" y2="0"><stop id="stop4634" offset="0" style="stop-opacity:1;stop-color:#51ade5"></stop><stop id="stop4636" offset="1" style="stop-opacity:1;stop-color:#2e3591"></stop></linearGradient><clipPath clipPathunits="userSpaceOnUse" id="clipPath4648"><path d="M 2474.82,478.016 V 364.113 h 79.83 c 20.45,0 36.18,4.66 47.22,13.996 11.03,9.329 16.55,22.832 16.55,40.52 0,17.844 -5.44,32.043 -16.31,42.59 -10.87,10.547 -26.13,16.14 -45.76,16.797 h -3.16 z m 0,44.047 h 63.28 c 18.33,0 32.81,4.343 43.44,13.023 10.63,8.68 15.95,20.965 15.95,36.867 0,17.524 -5.6,30.547 -16.8,39.067 -11.19,8.519 -27.5,12.777 -48.91,12.777 h -56.96 z m -59.14,-205.165 v 354.356 h 116.1 c 39.09,0 69.68,-8.074 91.75,-24.219 22.06,-16.144 33.1,-40.277 33.1,-72.406 0,-15.574 -4.43,-29.609 -13.27,-42.098 -8.84,-12.496 -21.13,-21.988 -36.87,-28.476 22.71,-3.731 40.2,-13.551 52.45,-29.446 12.25,-15.91 18.37,-34.566 18.37,-55.98 0,-33.262 -10.87,-58.535 -32.61,-75.813 -21.75,-17.281 -51.76,-25.918 -90.05,-25.918 z" id="path4646" inkscape:connector-curvature="0"></path></clipPath><linearGradient gradientTransform="matrix(0,-354.356,-354.356,0,2546.5,671.252)" gradientUnits="userSpaceOnUse" id="linearGradient4654" spreadmethod="pad" x1="0" x2="1" y1="0" y2="0"><stop id="stop4650" offset="0" style="stop-opacity:1;stop-color:#f9a727"></stop><stop id="stop4652" offset="1" style="stop-opacity:1;stop-color:#f14721"></stop></linearGradient><clipPath clipPathunits="userSpaceOnUse" id="clipPath4664"><path d="m 2848.65,692.43 h 66.93 l 0.49,-1.457 -66.44,-63.285 h -47.46 z m -35.29,-333.188 c 14.76,0 28.11,3.735 40.04,11.196 11.92,7.46 19.83,15.984 23.72,25.558 v 38.938 h -46.97 c -17.19,0 -30.66,-4.258 -40.39,-12.778 -9.74,-8.515 -14.61,-18.539 -14.61,-30.058 0,-10.055 3.29,-18.051 9.86,-23.969 6.57,-5.93 16.02,-8.887 28.35,-8.887 z m 72.29,-42.344 c -2.11,6.649 -3.86,13.141 -5.23,19.473 -1.39,6.32 -2.32,12.652 -2.8,18.981 -7.96,-12.332 -18.59,-22.676 -31.89,-31.036 -13.3,-8.351 -28.15,-12.531 -44.53,-12.531 -27.43,0 -48.48,7.063 -63.17,21.18 -14.68,14.109 -22.02,33.5 -22.02,58.164 0,25.469 10.06,45.305 30.18,59.504 20.12,14.199 48.43,21.297 84.94,21.297 h 45.99 v 23.121 c 0,13.789 -4.01,24.582 -12.04,32.371 -8.03,7.785 -19.68,11.676 -34.93,11.676 -13.46,0 -24.17,-3.203 -32.12,-9.614 -7.95,-6.41 -11.93,-14.722 -11.93,-24.945 l -56.94,-0.242 -0.25,1.465 c -1.14,20.765 8.16,39.183 27.87,55.242 19.71,16.066 45.39,24.094 77.02,24.094 30.67,0 55.41,-7.789 74.24,-23.364 18.82,-15.578 28.23,-37.964 28.23,-67.168 v -117.07 c 0,-10.867 0.72,-21.293 2.19,-31.273 1.46,-9.977 3.81,-19.754 7.06,-29.325 z" id="path4662" inkscape:connector-curvature="0"></path></clipPath><linearGradient gradientTransform="matrix(0,-380.642,-380.642,0,2830.77,692.429)" gradientUnits="userSpaceOnUse" id="linearGradient4670" spreadmethod="pad" x1="0" x2="1" y1="0" y2="0"><stop id="stop4666" offset="0" style="stop-opacity:1;stop-color:#f9a727"></stop><stop id="stop4668" offset="1" style="stop-opacity:1;stop-color:#f14721"></stop></linearGradient><clipPath clipPathunits="userSpaceOnUse" id="clipPath4680"><path d="m 3060.88,364.113 h 140.67 v -47.215 h -213.93 v 38.692 l 132.88,176.941 h -130.2 v 47.699 h 204.92 v -37.48 z" id="path4678" inkscape:connector-curvature="0"></path></clipPath><linearGradient gradientTransform="matrix(0,-263.334,-263.334,0,3094.58,580.231)" gradientUnits="userSpaceOnUse" id="linearGradient4686" spreadmethod="pad" x1="0" x2="1" y1="0" y2="0"><stop id="stop4682" offset="0" style="stop-opacity:1;stop-color:#f9a727"></stop><stop id="stop4684" offset="1" style="stop-opacity:1;stop-color:#f14721"></stop></linearGradient><clipPath clipPathunits="userSpaceOnUse" id="clipPath4696"><path d="m 3313.75,316.898 h -59.14 V 580.23 h 59.14 z m 0,327.829 h -59.14 v 51.839 h 59.14 z" id="path4694" inkscape:connector-curvature="0"></path></clipPath><linearGradient gradientTransform="matrix(0,-379.668,-379.668,0,3284.18,696.565)" gradientUnits="userSpaceOnUse" id="linearGradient4702" spreadmethod="pad" x1="0" x2="1" y1="0" y2="0"><stop id="stop4698" offset="0" style="stop-opacity:1;stop-color:#f9a727"></stop><stop id="stop4700" offset="1" style="stop-opacity:1;stop-color:#f14721"></stop></linearGradient><clipPath clipPathunits="userSpaceOnUse" id="clipPath4712"><path d="M 0,0 H 3586 V 1010 H 0 Z" id="path4710" inkscape:connector-curvature="0"></path></clipPath><clipPath clipPathunits="userSpaceOnUse" id="clipPath4718"><path d="m 3527.91,388.938 c 0,9.082 -3.85,16.589 -11.56,22.511 -7.7,5.918 -22.26,11.235 -43.69,15.942 -30.98,6.332 -54.67,15.656 -71.06,27.992 -16.39,12.324 -24.58,28.875 -24.58,49.648 0,22.063 9.33,40.922 27.99,56.578 18.65,15.657 43.23,23.489 73.74,23.489 31.48,0 56.83,-8.075 76.06,-24.215 19.22,-16.149 28.43,-35.574 27.62,-58.289 l -0.48,-1.461 h -56.71 c 0,10.711 -4.23,20 -12.66,27.867 -8.44,7.871 -19.71,11.801 -33.83,11.801 -14.28,0 -25.15,-3.242 -32.61,-9.731 -7.47,-6.492 -11.2,-14.441 -11.2,-23.851 0,-8.926 3.49,-16.067 10.47,-21.414 6.97,-5.356 21.33,-10.149 43.07,-14.364 32.29,-6.496 56.63,-16.027 73.02,-28.597 16.38,-12.578 24.58,-29.406 24.58,-50.5 0,-23.692 -9.78,-43.043 -29.32,-58.047 -19.56,-15.008 -45.31,-22.512 -77.28,-22.512 -34.23,0 -61.25,8.766 -81.04,26.289 -19.8,17.516 -29.21,37.637 -28.24,60.352 l 0.49,1.465 h 55.01 c 0.64,-15.254 6.16,-26.375 16.54,-33.344 10.39,-6.977 23.04,-10.465 37.97,-10.465 15.09,0 26.81,2.996 35.17,9.008 8.35,5.996 12.53,13.945 12.53,23.848 z" id="path4716" inkscape:connector-curvature="0"></path></clipPath><linearGradient gradientTransform="matrix(0,-273.309,-273.309,0,3478.11,585.096)" gradientUnits="userSpaceOnUse" id="linearGradient4724" spreadmethod="pad" x1="0" x2="1" y1="0" y2="0"><stop id="stop4720" offset="0" style="stop-opacity:1;stop-color:#f9a727"></stop><stop id="stop4722" offset="1" style="stop-opacity:1;stop-color:#f14721"></stop></linearGradient><linearGradient gradientTransform="matrix(636.169,0,0,-636.169,0,505)" gradientUnits="userSpaceOnUse" id="linearGradient4732" spreadmethod="pad" x1="0" x2="1" y1="0" y2="0"><stop id="stop4728" offset="0" style="stop-opacity:1;stop-color:#f9a727"></stop><stop id="stop4730" offset="1" style="stop-opacity:1;stop-color:#f14721"></stop></linearGradient><linearGradient gradientTransform="matrix(496.169,0,0,-496.169,140,395)" gradientUnits="userSpaceOnUse" id="linearGradient4740" spreadmethod="pad" x1="0" x2="1" y1="0" y2="0"><stop id="stop4736" offset="0" style="stop-opacity:1;stop-color:#51ade5"></stop><stop id="stop4738" offset="1" style="stop-opacity:1;stop-color:#2e3591"></stop></linearGradient><linearGradient gradientTransform="matrix(0,36.441199,-36.441199,0,438.17732,56.653861)" gradientUnits="userSpaceOnUse" id="linearGradient4724-0" spreadmethod="pad" x1="0" x2="1" y1="0" y2="0"><stop id="stop4720-5" offset="0" style="stop-opacity:1;stop-color:#f9a727"></stop><stop id="stop4722-1" offset="1" style="stop-opacity:1;stop-color:#f14721"></stop></linearGradient><linearGradient gradientTransform="matrix(0,50.622399,-50.622399,0,412.31999,41.791328)" gradientUnits="userSpaceOnUse" id="linearGradient4702-2" spreadmethod="pad" x1="0" x2="1" y1="0" y2="0"><stop id="stop4698-4" offset="0" style="stop-opacity:1;stop-color:#f9a727"></stop><stop id="stop4700-9" offset="1" style="stop-opacity:1;stop-color:#f14721"></stop></linearGradient><linearGradient gradientTransform="matrix(0,35.111199,-35.111199,0,387.03998,57.302528)" gradientUnits="userSpaceOnUse" id="linearGradient4686-5" spreadmethod="pad" x1="0" x2="1" y1="0" y2="0"><stop id="stop4682-9" offset="0" style="stop-opacity:1;stop-color:#f9a727"></stop><stop id="stop4684-2" offset="1" style="stop-opacity:1;stop-color:#f14721"></stop></linearGradient><linearGradient gradientTransform="matrix(0,47.247465,-47.247465,0,313.96265,45.166395)" gradientUnits="userSpaceOnUse" id="linearGradient4654-4" spreadmethod="pad" x1="0" x2="1" y1="0" y2="0"><stop id="stop4650-3" offset="0" style="stop-opacity:1;stop-color:#f9a727"></stop><stop id="stop4652-4" offset="1" style="stop-opacity:1;stop-color:#f14721"></stop></linearGradient><linearGradient gradientTransform="matrix(0,50.752265,-50.752265,0,351.86532,42.342795)" gradientUnits="userSpaceOnUse" id="linearGradient4670-9" spreadmethod="pad" x1="0" x2="1" y1="0" y2="0"><stop id="stop4666-8" offset="0" style="stop-opacity:1;stop-color:#f9a727"></stop><stop id="stop4668-9" offset="1" style="stop-opacity:1;stop-color:#f14721"></stop></linearGradient></defs><sodipodi:namedview bordercolor="#666666" borderopacity="1" fit-margin-bottom="0" fit-margin-left="0" fit-margin-right="0" fit-margin-top="0" gridtolerance="10" guidetolerance="10" id="namedview4520" inkscape:current-layer="layer2" inkscape:cx="247.6199" inkscape:cy="133.40614" inkscape:document-rotation="0" inkscape:pageopacity="0" inkscape:pageshadow="2" inkscape:window-height="1001" inkscape:window-maximized="1" inkscape:window-width="1920" inkscape:window-x="-9" inkscape:window-y="-9" inkscape:zoom="2.0600368" objecttolerance="10" pagecolor="#ffffff" showgrid="false"><inkscape:grid id="grid4642" originx="0" originy="3.5058592e-06" type="xygrid"></inkscape:grid></sodipodi:namedview><g id="g4526" inkscape:groupmode="layer" inkscape:label="bitcoin" style="display:inline" transform="matrix(1.3333333,0,0,-1.3333333,0,134.66666)"><g id="g4528" transform="scale(0.1)"><g id="g4530"><g clip-path="url(#clipPath4536)" id="g4532"><path d="M 780.426,478.016 V 364.113 h 79.828 c 20.441,0 36.18,4.66 47.215,13.996 11.031,9.329 16.551,22.832 16.551,40.52 0,17.844 -5.442,32.043 -16.309,42.59 -10.871,10.547 -26.121,16.14 -45.75,16.797 h -3.168 z m 0,44.047 h 63.281 c 18.328,0 32.813,4.343 43.441,13.023 10.622,8.68 15.942,20.965 15.942,36.867 0,17.524 -5.598,30.547 -16.793,39.067 -11.199,8.519 -27.504,12.777 -48.922,12.777 H 780.426 Z M 721.285,316.898 v 354.356 h 116.09 c 39.102,0 69.688,-8.074 91.754,-24.219 22.062,-16.144 33.101,-40.277 33.101,-72.406 0,-15.574 -4.421,-29.609 -13.265,-42.098 -8.844,-12.496 -21.137,-21.988 -36.871,-28.476 22.715,-3.731 40.195,-13.551 52.445,-29.446 12.25,-15.91 18.375,-34.566 18.375,-55.98 0,-33.262 -10.871,-58.535 -32.609,-75.813 -21.742,-17.281 -51.762,-25.918 -90.051,-25.918 H 721.285" id="path4544" inkscape:connector-curvature="0" style="fill:url(#linearGradient4542);fill-opacity:1;fill-rule:nonzero;stroke:none"></path></g></g><g id="g4546"><g clip-path="url(#clipPath4552)" id="g4548"><path d="m 1095.6,316.898 h -59.14 V 580.23 h 59.14 z m 0,327.829 h -59.14 v 51.839 h 59.14 v -51.839" id="path4560" inkscape:connector-curvature="0" style="fill:url(#linearGradient4558);fill-opacity:1;fill-rule:nonzero;stroke:none"></path></g></g><g id="g4562"><g clip-path="url(#clipPath4568)" id="g4564"><path d="M 1237.49,644.238 V 580.23 h 47.21 v -43.808 h -47.21 V 390.883 c 0,-10.871 2.35,-18.621 7.06,-23.238 4.7,-4.629 10.95,-6.938 18.74,-6.938 3.24,0 6.4,0.281 9.49,0.852 3.08,0.566 6,1.336 8.76,2.308 l 6.33,-43.316 c -5.04,-2.762 -11,-4.906 -17.89,-6.453 -6.9,-1.539 -14.08,-2.313 -21.54,-2.313 -21.75,0 -38.82,6.367 -51.23,19.106 -12.41,12.734 -18.62,32.734 -18.62,59.992 v 145.539 h -40.16 v 43.808 h 40.16 v 64.008 h 58.9" id="path4576" inkscape:connector-curvature="0" style="fill:url(#linearGradient4574);fill-opacity:1;fill-rule:nonzero;stroke:none"></path></g></g><g id="g4578"><g clip-path="url(#clipPath4584)" id="g4580"><path d="m 1439.74,359.004 c 13.46,0 24.86,4.219 34.19,12.652 9.33,8.438 13.99,19.149 13.99,32.125 h 53.55 l 0.48,-1.457 c 0.65,-24.664 -9.12,-45.922 -29.32,-63.765 -20.2,-17.852 -44.5,-26.774 -72.89,-26.774 -37.97,0 -67.26,12.531 -87.86,37.606 -20.61,25.066 -30.91,56.66 -30.91,94.797 v 8.515 c 0,37.965 10.3,69.52 30.91,94.676 20.6,25.144 49.81,37.719 87.61,37.719 30.67,0 55.57,-9.207 74.72,-27.625 19.14,-18.414 28.39,-41.821 27.74,-70.211 l -0.48,-1.457 h -53.55 c 0,14.437 -4.46,26.687 -13.38,36.742 -8.93,10.066 -20.61,15.094 -35.05,15.094 -21.09,0 -36.26,-8.157 -45.51,-24.461 -9.25,-16.305 -13.87,-36.465 -13.87,-60.477 v -8.515 c 0,-24.504 4.58,-44.829 13.75,-60.969 9.16,-16.149 24.46,-24.215 45.88,-24.215" id="path4592" inkscape:connector-curvature="0" style="fill:url(#linearGradient4590);fill-opacity:1;fill-rule:nonzero;stroke:none"></path></g></g><g id="g4594"><g clip-path="url(#clipPath4600)" id="g4596"><path d="m 1639.79,445.891 c 0,-25.805 5.03,-46.735 15.09,-62.793 10.06,-16.067 25.63,-24.094 46.73,-24.094 20.6,0 36.06,8.066 46.36,24.215 10.3,16.14 15.46,37.031 15.46,62.672 V 451 c 0,25.148 -5.16,45.875 -15.46,62.18 -10.3,16.304 -25.92,24.461 -46.85,24.461 -20.61,0 -35.98,-8.157 -46.12,-24.461 -10.14,-16.305 -15.21,-37.032 -15.21,-62.18 z M 1580.65,451 c 0,39.258 10.75,71.426 32.25,96.5 21.49,25.066 50.9,37.598 88.22,37.598 37.81,0 67.45,-12.532 88.96,-37.598 21.49,-25.074 32.24,-57.242 32.24,-96.5 v -5.109 c 0,-39.594 -10.75,-71.844 -32.24,-96.746 -21.51,-24.911 -50.99,-37.36 -88.47,-37.36 -37.65,0 -67.22,12.492 -88.71,37.485 -21.5,24.984 -32.25,57.191 -32.25,96.621 V 451" id="path4608" inkscape:connector-curvature="0" style="fill:url(#linearGradient4606);fill-opacity:1;fill-rule:nonzero;stroke:none"></path></g></g><g id="g4610"><g clip-path="url(#clipPath4616)" id="g4612"><path d="m 1936.95,316.898 h -59.14 V 580.23 h 59.14 z m 0,327.829 h -59.14 v 51.839 h 59.14 v -51.839" id="path4624" inkscape:connector-curvature="0" style="fill:url(#linearGradient4622);fill-opacity:1;fill-rule:nonzero;stroke:none"></path></g></g><g id="g4626"><g clip-path="url(#clipPath4632)" id="g4628"><path d="m 2056.7,580.23 3.4,-37.964 c 8.6,13.464 19.43,23.968 32.49,31.511 13.06,7.551 27.79,11.321 44.17,11.321 27.42,0 48.8,-8.438 64.14,-25.305 15.33,-16.879 23,-43.246 23,-79.102 V 316.898 h -59.15 v 163.305 c 0,20.445 -3.97,34.957 -11.92,43.567 -7.95,8.597 -19.96,12.898 -36.02,12.898 -12.65,0 -23.6,-2.402 -32.86,-7.184 -9.24,-4.785 -16.63,-11.398 -22.14,-19.836 v -192.75 h -59.14 V 580.23 h 54.03" id="path4640" inkscape:connector-curvature="0" style="fill:url(#linearGradient4638);fill-opacity:1;fill-rule:nonzero;stroke:none"></path></g></g><g id="g4642"><g clip-path="url(#clipPath4648)" id="g4644"></g></g><g id="g4658"><g clip-path="url(#clipPath4664)" id="g4660"></g></g><g id="g4674"><g clip-path="url(#clipPath4680)" id="g4676"></g></g><g id="g4690"><g clip-path="url(#clipPath4696)" id="g4692"></g></g><g id="g4706"><g clip-path="url(#clipPath4712)" id="g4708"><g clip-path="url(#clipPath4718)" id="g4714"></g></g></g><path d="m 257.566,740 h 193.602 c 18.629,0 34.645,-7.395 48.027,-20.441 13.387,-13.043 20.078,-29.489 20.078,-48.465 0,-18.293 -6.269,-33.59 -18.804,-45.449 -6.778,-6.438 -14.063,-14.942 -21.856,-17.653 C 470.82,605.281 461.672,600 451.168,600 h -54.891 l 75.219,110 H 350.535 L 280,607.637 V 510 h 179.297 c 47.433,0 88.773,18.75 124.016,50.09 35.238,31.344 52.855,69.652 52.855,110.652 0,47.774 -17.871,86.934 -53.875,116.645 C 548.496,815.273 507.582,830 459.809,830 H 250 v 180 L 140,910 v -80 h -20 v 80 H 0 V 737.449 179.711 80 L 120,0 V 179.711 740 h 21.813 115.753" id="path4734" inkscape:connector-curvature="0" style="fill:url(#linearGradient4732);fill-opacity:1;fill-rule:evenodd;stroke:none"></path><path d="M 583.313,445.031 C 548.07,476.371 506.73,490 459.297,490 H 280 V 402.605 L 350.535,300 h 120.961 l -75.219,90 h 54.891 c 10.504,0 19.652,4.949 27.445,2.238 7.793,-2.711 15.078,-4.133 21.856,-10.57 12.535,-11.863 18.804,-25.363 18.804,-43.66 0,-18.977 -6.691,-35.188 -20.078,-48.235 C 485.813,276.73 469.797,270 451.168,270 H 250 V 710 H 140 V 179.711 80 h 110 v 100 h 9.852 199.957 c 47.773,0 88.687,14.043 122.484,41.926 36.004,29.711 53.875,67.719 53.875,115.492 0,41 -17.617,76.273 -52.855,107.613" id="path4742" inkscape:connector-curvature="0" style="fill:url(#linearGradient4740);fill-opacity:1;fill-rule:evenodd;stroke:none"></path></g>
</g><g id="layer3" inkscape:groupmode="layer" inkscape:label="kriptopenzek black" style="display:none"><text id="text4746" style="font-style:normal;font-variant:normal;font-weight:bold;font-stretch:normal;font-size:21.3333px;line-height:1.25;font-family:'Kozuka Gothic Pr6N';-inkscape-font-specification:'Kozuka Gothic Pr6N, Bold';font-variant-ligatures:normal;font-variant-caps:normal;font-variant-numeric:normal;font-feature-settings:normal;text-align:start;letter-spacing:0px;word-spacing:0px;writing-mode:lr-tb;text-anchor:start;display:inline;fill:#000000;fill-opacity:1;stroke:none;stroke-width:1" x="240.95689" xml:space="preserve" y="111.12487"><tspan id="tspan4744" sodipodi:role="line" style="font-style:normal;font-variant:normal;font-weight:bold;font-stretch:normal;font-size:21.3333px;font-family:'Kozuka Gothic Pr6N';-inkscape-font-specification:'Kozuka Gothic Pr6N, Bold';font-variant-ligatures:normal;font-variant-caps:normal;font-variant-numeric:normal;font-feature-settings:normal;text-align:start;writing-mode:lr-tb;text-anchor:start;stroke-width:1" x="240.95689" y="111.12487">A Kriptopénzek Világa</tspan></text>
</g><g id="layer2" inkscape:groupmode="layer" inkscape:label="kriptopenzek grey" style="display:inline"><text id="text4717" style="font-style:normal;font-variant:normal;font-weight:bold;font-stretch:normal;font-size:21.3333px;line-height:1.25;font-family:'Kozuka Gothic Pr6N';-inkscape-font-specification:'Kozuka Gothic Pr6N, Bold';font-variant-ligatures:normal;font-variant-caps:normal;font-variant-numeric:normal;font-feature-settings:normal;text-align:start;letter-spacing:0px;word-spacing:0px;writing-mode:lr-tb;text-anchor:start;display:inline;fill:#2f4f4f;fill-opacity:1;stroke:none;stroke-width:1" x="251.42909" xml:space="preserve" y="113.65341"><tspan id="tspan4715" sodipodi:role="line" style="font-style:normal;font-variant:normal;font-weight:bold;font-stretch:normal;font-size:21.3333px;font-family:'Kozuka Gothic Pr6N';-inkscape-font-specification:'Kozuka Gothic Pr6N, Bold';font-variant-ligatures:normal;font-variant-caps:normal;font-variant-numeric:normal;font-feature-settings:normal;text-align:start;writing-mode:lr-tb;text-anchor:start;fill:#2f4f4f;fill-opacity:1;stroke-width:1" x="251.42909" y="113.65341">A Decentralizált Jövő</tspan></text>
</g><g id="layer1" inkscape:groupmode="layer" inkscape:label="bazis" style="display:inline" transform="translate(0,6.6e-6)"><g id="g1008" transform="translate(6)"><path d="m 304.40532,70.931194 v 15.187067 h 10.644 c 2.72667,0 4.824,-0.621334 6.296,-1.866134 1.47067,-1.243866 2.20667,-3.044266 2.20667,-5.402666 0,-2.3792 -0.72534,-4.2724 -2.17467,-5.678667 -1.44933,-1.406266 -3.484,-2.152 -6.10133,-2.2396 h -0.42134 z m 0,-5.872933 h 8.43733 c 2.444,0 4.37467,-0.579067 5.792,-1.7364 1.41734,-1.157333 2.12667,-2.795333 2.12667,-4.9156 0,-2.336533 -0.74667,-4.072933 -2.24,-5.208933 -1.492,-1.135867 -3.66667,-1.7036 -6.52133,-1.7036 h -7.59467 z m -7.88533,27.355333 V 45.166128 h 15.48 c 5.212,0 9.29066,1.076534 12.23333,3.2292 2.94133,2.152533 4.41333,5.370267 4.41333,9.654133 0,2.076534 -0.59066,3.947867 -1.76933,5.613067 -1.17867,1.666133 -2.81733,2.931733 -4.916,3.7968 3.028,0.497466 5.36,1.8068 6.99333,3.926133 1.63334,2.121333 2.44934,4.6088 2.44934,7.464 0,4.434933 -1.44934,7.804666 -4.348,10.108399 -2.9,2.304134 -6.90134,3.455734 -12.00667,3.455734 h -18.52933" id="path4656" inkscape:connector-curvature="0" style="fill:url(#linearGradient4654-4);fill-opacity:1;fill-rule:nonzero;stroke:none;stroke-width:0.13333333"></path><path d="m 354.24932,42.342662 h 8.924 l 0.0653,0.194266 -8.85867,8.438 h -6.328 z m -4.70533,44.425065 c 1.968,0 3.748,-0.498 5.33866,-1.4928 1.58934,-0.994666 2.644,-2.1312 3.16267,-3.407733 v -5.191733 h -6.26267 c -2.292,0 -4.088,0.567733 -5.38533,1.703733 -1.29867,1.135333 -1.948,2.471867 -1.948,4.007733 0,1.340667 0.43867,2.4068 1.31467,3.195867 0.876,0.790667 2.136,1.184933 3.78,1.184933 z m 9.63866,5.645867 c -0.28133,-0.886534 -0.51467,-1.752134 -0.69733,-2.5964 -0.18534,-0.842667 -0.30934,-1.686933 -0.37334,-2.5308 -1.06133,1.644266 -2.47866,3.023466 -4.25199,4.138133 -1.77334,1.113467 -3.75334,1.6708 -5.93734,1.6708 -3.65733,0 -6.464,-0.941733 -8.42266,-2.824 -1.95734,-1.8812 -2.936,-4.466666 -2.936,-7.7552 0,-3.395866 1.34133,-6.040666 4.024,-7.933866 2.68266,-1.8932 6.45733,-2.8396 11.32533,-2.8396 h 6.132 v -3.0828 c 0,-1.838533 -0.53467,-3.2776 -1.60533,-4.316133 -1.07067,-1.038 -2.624,-1.5568 -4.65734,-1.5568 -1.79466,0 -3.22266,0.427066 -4.28266,1.281866 -1.06,0.854667 -1.59067,1.962934 -1.59067,3.326 l -7.592,0.03227 -0.0333,-0.195333 c -0.152,-2.768667 1.088,-5.2244 3.716,-7.3656 2.628,-2.142133 6.052,-3.212533 10.26933,-3.212533 4.08933,0 7.388,1.038533 9.89867,3.1152 2.50933,2.077066 3.764,5.061866 3.764,8.955733 v 15.609333 c 0,1.448933 0.096,2.839066 0.292,4.169733 0.19466,1.330266 0.508,2.633866 0.94133,3.91 h -7.98267" id="path4672" inkscape:connector-curvature="0" style="fill:url(#linearGradient4670-9);fill-opacity:1;fill-rule:nonzero;stroke:none;stroke-width:0.13333333"></path><path d="m 382.54665,86.118261 h 18.756 v 6.295333 h -28.524 v -5.158933 l 17.71733,-23.592133 h -17.36 v -6.359867 h 27.32267 v 4.997333 l -17.912,23.818267" id="path4688" inkscape:connector-curvature="0" style="fill:url(#linearGradient4686-5);fill-opacity:1;fill-rule:nonzero;stroke:none;stroke-width:0.13333333"></path><path d="m 416.26265,92.413594 h -7.88533 V 57.302661 h 7.88533 z m 0,-43.710532 h -7.88533 v -6.911867 h 7.88533 v 6.911867" id="path4704" inkscape:connector-curvature="0" style="fill:url(#linearGradient4702-2);fill-opacity:1;fill-rule:nonzero;stroke:none;stroke-width:0.13333333"></path><path d="M 437.22932,93.199994 V 93.06666 h -1.6 v -0.133333 h -0.93333 v -0.133333 h -0.53334 V 92.66666 h -0.66666 v -0.133333 h -0.53334 v -0.133333 h -0.53333 V 92.26666 h -0.4 v -0.133333 h -0.4 v -0.133333 h -0.26667 V 91.86666 h -0.26666 v -0.133333 h -0.4 v -0.133333 h -0.26667 V 91.46666 h -0.26667 v -0.133333 h -0.4 v -0.133333 h -0.26666 V 91.06666 h -0.13334 v -0.133333 h -0.26666 v -0.133333 h -0.13334 V 90.66666 h -0.26666 v -0.133333 h -0.13334 v -0.133333 h -0.26666 V 90.26666 h -0.13334 v -0.133333 h -0.26666 v -0.133333 h -0.13334 V 89.86666 h -0.13333 v -0.133333 h -0.13333 v -0.133333 h -0.13334 V 89.46666 h -0.13333 v -0.133333 h -0.13333 v -0.133333 h -0.13334 V 89.06666 h -0.13333 v -0.133333 h -0.13333 v -0.133333 h -0.13334 V 88.66666 h -0.13333 v -0.133333 h -0.13333 v -0.133333 h -0.13334 v -0.133333 h -0.13333 v -0.266667 h -0.13333 v -0.133333 h -0.13334 v -0.133334 h -0.13333 v -0.266666 h -0.13333 v -0.133334 h -0.13334 v -0.266666 h -0.13333 v -0.266667 h -0.13333 v -0.133333 h -0.13334 v -0.266667 h -0.13333 v -0.133333 h -0.13333 v -0.266667 h -0.13334 v -0.266667 h -0.13333 v -0.4 h -0.13333 v -0.533333 h -0.13334 v -0.4 h -0.13333 v -0.4 h -0.13333 v -0.666667 h -0.13334 v -2 h 7.46667 v 0.4 h 0.13333 v 0.933334 h 0.13334 v 0.4 h 0.13333 v 0.4 h 0.13333 v 0.4 h 0.13334 v 0.133333 h 0.13333 v 0.266667 h 0.13333 v 0.133333 h 0.13334 v 0.266667 h 0.13333 v 0.133333 h 0.13333 v 0.266667 h 0.13334 v 0.133333 h 0.26666 v 0.133333 h 0.13334 v 0.133334 h 0.13333 v 0.133333 h 0.13333 v 0.133333 h 0.26667 v 0.133334 h 0.13333 v 0.133333 h 0.26667 v 0.133333 h 0.26667 v 0.133334 h 0.26666 v 0.133333 h 0.4 v 0.133333 h 0.26667 v 0.133334 h 0.4 v 0.133333 h 0.66667 v 0.133333 h 0.66666 v 0.133334 h 3.06667 v -0.133334 h 0.8 v -0.133333 h 0.53333 v -0.133333 h 0.4 v -0.133334 h 0.4 v -0.133333 h 0.26667 v -0.133333 h 0.26667 v -0.133334 h 0.13333 v -0.133333 h 0.26667 v -0.133333 h 0.13333 v -0.133334 h 0.13333 v -0.133333 h 0.13334 v -0.133333 h 0.13333 v -0.133334 h 0.13333 v -0.133333 h 0.13334 v -0.133333 h 0.13333 v -0.266667 h 0.13333 v -0.133333 h 0.13334 v -0.266667 h 0.13333 v -0.266667 h 0.13333 v -0.4 h 0.13334 v -1.733333 h -0.13334 v -0.4 h -0.13333 v -0.4 h -0.13333 v -0.133333 h -0.13334 v -0.266667 h -0.13333 v -0.133333 h -0.13333 v -0.266667 h -0.13334 v -0.133333 h -0.13333 v -0.133334 h -0.13333 v -0.133333 h -0.26667 v -0.133333 h -0.13333 v -0.133334 h -0.13334 v -0.133333 h -0.26666 v -0.133333 h -0.26667 v -0.133334 h -0.26667 v -0.133333 h -0.26666 v -0.133333 h -0.26667 v -0.133334 h -0.4 v -0.133333 h -0.26667 v -0.133333 h -0.4 v -0.133334 h -0.53333 v -0.133333 h -0.4 v -0.133333 h -0.4 v -0.133334 h -0.53333 v -0.133333 h -0.53334 v -0.133333 h -0.53333 v -0.133334 h -0.66667 v -0.133333 h -0.53333 v -0.133333 h -0.53333 v -0.133334 h -0.53334 v -0.133333 h -0.53333 v -0.133333 h -0.53333 v -0.133334 h -0.4 v -0.133333 h -0.4 v -0.133333 h -0.4 v -0.133334 h -0.26667 v -0.133333 h -0.4 v -0.133333 h -0.4 v -0.133334 h -0.4 v -0.133333 h -0.26667 v -0.133333 h -0.26666 v -0.133334 h -0.26667 v -0.133333 h -0.26667 v -0.133333 h -0.4 v -0.133334 h -0.26666 v -0.133333 h -0.26667 v -0.133333 h -0.13333 v -0.133333 h -0.26667 v -0.133334 h -0.26667 v -0.133333 h -0.13333 v -0.133333 h -0.26667 v -0.133334 h -0.26666 v -0.133333 h -0.13334 v -0.133333 h -0.13333 v -0.133334 h -0.26667 v -0.133333 h -0.13333 v -0.133333 h -0.13333 v -0.133334 h -0.13334 v -0.133333 h -0.13333 v -0.133333 h -0.13333 v -0.133334 h -0.13334 v -0.133333 h -0.13333 v -0.133333 h -0.13333 v -0.133334 h -0.13334 v -0.133333 h -0.13333 v -0.133333 h -0.13333 v -0.266667 h -0.13334 v -0.133333 h -0.13333 v -0.266667 h -0.13333 v -0.133333 h -0.13334 v -0.266667 h -0.13333 v -0.133333 h -0.13333 v -0.266667 h -0.13334 v -0.4 h -0.13333 v -0.4 h -0.13333 v -0.4 h -0.13334 v -0.266667 h -0.13333 v -0.8 h -0.13333 v -2.933333 h 0.13333 v -0.8 h 0.13333 v -0.4 h 0.13334 v -0.4 h 0.13333 v -0.4 h 0.13333 v -0.266667 h 0.13334 v -0.4 h 0.13333 v -0.266666 h 0.13333 v -0.133334 h 0.13334 v -0.266666 h 0.13333 v -0.133334 h 0.13333 v -0.266666 h 0.13334 v -0.133334 h 0.13333 v -0.266666 h 0.13333 v -0.266667 h 0.13334 v -0.133333 h 0.13333 v -0.133333 h 0.13333 v -0.133334 h 0.13334 v -0.133333 h 0.13333 v -0.133333 h 0.13333 v -0.133334 h 0.13334 v -0.133333 h 0.13333 v -0.266667 h 0.13333 v -0.133333 h 0.13334 v -0.133333 h 0.26666 v -0.133334 h 0.13334 v -0.133333 h 0.13333 v -0.133333 h 0.13333 v -0.133334 h 0.13334 v -0.133333 h 0.26666 v -0.133333 h 0.13334 v -0.133334 h 0.26666 v -0.133333 h 0.13334 v -0.133333 h 0.26666 v -0.133334 h 0.26667 v -0.133333 h 0.13333 v -0.133333 h 0.26667 v -0.133334 h 0.26667 v -0.133333 h 0.4 v -0.133333 h 0.26666 v -0.133334 h 0.26667 v -0.133333 h 0.4 v -0.133333 h 0.26667 v -0.133334 h 0.26666 v -0.133333 h 0.53334 v -0.133333 h 0.66666 v -0.133334 h 0.53334 v -0.133333 h 0.66666 v -0.133333 h 0.93334 v -0.133334 h 1.46666 v -0.133333 h 1.86667 v 0.133333 h 1.46667 v 0.133334 h 0.93333 v 0.133333 h 0.66667 v 0.133333 h 0.53333 v 0.133334 h 0.66667 v 0.133333 h 0.53333 v 0.133333 h 0.26667 v 0.133334 h 0.4 v 0.133333 h 0.26666 v 0.133333 h 0.26667 v 0.133334 h 0.4 v 0.133333 h 0.26667 v 0.133333 h 0.26666 v 0.133334 h 0.26667 v 0.133333 h 0.26667 v 0.133333 h 0.26666 v 0.133334 h 0.13334 v 0.133333 h 0.26666 v 0.133333 h 0.13334 v 0.133334 h 0.26666 v 0.133333 h 0.26667 v 0.133333 h 0.13333 v 0.133334 h 0.13334 v 0.133333 h 0.13333 v 0.133333 h 0.13333 v 0.133334 h 0.26667 v 0.133333 h 0.13333 v 0.133333 h 0.13334 v 0.133334 h 0.13333 v 0.133333 h 0.13333 v 0.266667 h 0.13334 v 0.133333 h 0.13333 v 0.133333 h 0.13333 v 0.133334 h 0.13334 v 0.133333 h 0.13333 v 0.133333 h 0.13333 v 0.133334 h 0.13334 v 0.266666 h 0.13333 v 0.266667 h 0.13333 v 0.133333 h 0.13334 v 0.266667 h 0.13333 v 0.133333 h 0.13333 v 0.266667 h 0.13334 v 0.266666 h 0.13333 v 0.133334 h 0.13333 v 0.4 h 0.13334 v 0.4 h 0.13333 v 0.4 h 0.13333 v 0.4 h 0.13334 v 0.4 h 0.13333 v 1.066666 h 0.13333 v 1.466667 h -7.73333 v -0.4 h -0.13333 v -0.8 h -0.13334 v -0.4 h -0.13333 v -0.4 h -0.13333 v -0.133333 h -0.13334 v -0.266667 h -0.13333 v -0.266667 h -0.13333 v -0.133333 h -0.13334 v -0.266667 h -0.13333 v -0.133333 h -0.13333 v -0.133333 h -0.13334 v -0.133334 h -0.13333 v -0.133333 h -0.13333 v -0.133333 h -0.13334 v -0.133334 h -0.13333 v -0.133333 h -0.26667 v -0.133333 h -0.13333 v -0.133334 h -0.26667 v -0.133333 h -0.26666 v -0.133333 h -0.26667 v -0.133334 h -0.26667 v -0.133333 h -0.26666 v -0.133333 h -0.53334 v -0.133334 h -0.53333 v -0.133333 h -2.8 v 0.133333 h -0.66667 v 0.133334 h -0.53333 v 0.133333 h -0.26667 v 0.133333 h -0.26666 v 0.133334 h -0.4 v 0.133333 h -0.13334 v 0.133333 h -0.26666 v 0.133334 h -0.13334 v 0.133333 h -0.13333 v 0.133333 h -0.26667 v 0.133334 h -0.13333 v 0.266666 h -0.13333 v 0.133334 h -0.13334 v 0.266666 h -0.13333 v 0.133334 h -0.13333 v 0.133333 h -0.13334 v 0.266667 h -0.13333 v 0.4 h -0.13333 v 0.4 h -0.13334 v 0.533333 h -0.13333 v 0.8 h 0.13333 v 0.4 h 0.13334 v 0.4 h 0.13333 v 0.4 h 0.13333 v 0.133333 h 0.13334 v 0.266667 h 0.13333 v 0.133333 h 0.13333 v 0.133334 h 0.13334 v 0.133333 h 0.13333 v 0.266667 h 0.26667 v 0.133333 h 0.13333 v 0.133333 h 0.26667 v 0.133334 h 0.13333 v 0.133333 h 0.26667 v 0.133333 h 0.4 v 0.133334 h 0.26666 v 0.133333 h 0.4 v 0.133333 h 0.4 v 0.133334 h 0.4 v 0.133333 h 0.53334 v 0.133333 h 0.4 v 0.133334 h 0.53333 v 0.133333 h 0.66667 v 0.133333 h 0.53333 v 0.133334 h 0.66667 v 0.133333 h 0.66666 v 0.133333 h 0.53334 v 0.133334 h 0.53333 v 0.133333 h 0.53333 v 0.133333 h 0.53334 v 0.133334 h 0.4 v 0.133333 h 0.4 v 0.133333 h 0.4 v 0.133334 h 0.4 v 0.133333 h 0.4 v 0.133333 h 0.4 v 0.133334 h 0.26666 v 0.133333 h 0.4 v 0.133333 h 0.26667 v 0.133334 h 0.26667 v 0.133333 h 0.26666 v 0.133333 h 0.26667 v 0.133334 h 0.26667 v 0.133333 h 0.4 v 0.133333 h 0.13333 v 0.133334 h 0.26667 v 0.133333 h 0.26666 v 0.133333 h 0.13334 v 0.133334 h 0.26666 v 0.133333 h 0.26667 v 0.133333 h 0.13333 v 0.133333 h 0.13334 v 0.133334 h 0.26666 v 0.133333 h 0.13334 v 0.133333 h 0.13333 v 0.133334 h 0.26667 v 0.266666 h 0.13333 v 0.133334 h 0.13333 v 0.133333 h 0.13334 v 0.133333 h 0.13333 v 0.133334 h 0.13333 v 0.133333 h 0.13334 v 0.133333 h 0.13333 v 0.133334 h 0.13333 v 0.266666 h 0.13334 v 0.133334 h 0.13333 v 0.266666 h 0.13333 v 0.133334 h 0.13334 v 0.266666 h 0.13333 v 0.133334 h 0.13333 v 0.266666 h 0.13334 v 0.4 h 0.13333 v 0.4 h 0.13333 v 0.4 h 0.13334 v 0.4 h 0.13333 v 0.533334 h 0.13333 v 3.333333 h -0.13333 v 0.8 h -0.13333 v 0.4 h -0.13334 v 0.266667 h -0.13333 v 0.4 h -0.13333 v 0.4 h -0.13334 v 0.4 h -0.13333 v 0.266666 h -0.13333 v 0.133334 h -0.13334 v 0.266666 h -0.13333 v 0.133334 h -0.13333 v 0.266666 h -0.13334 v 0.133334 h -0.13333 v 0.266666 h -0.13333 v 0.133334 h -0.13334 v 0.266666 h -0.13333 v 0.133333 h -0.13333 v 0.133334 h -0.13334 v 0.133333 h -0.13333 v 0.133333 h -0.13333 v 0.133334 h -0.13334 v 0.133333 h -0.13333 v 0.133333 h -0.13333 v 0.133334 h -0.13334 v 0.133333 h -0.13333 v 0.133333 h -0.26667 v 0.133334 h -0.13333 v 0.133333 h -0.13333 v 0.133333 h -0.13334 v 0.133334 h -0.26666 v 0.133333 h -0.13334 v 0.133333 h -0.26666 v 0.133334 h -0.26667 v 0.133333 h -0.13333 v 0.133333 h -0.26667 v 0.133334 h -0.26667 v 0.133333 h -0.26666 v 0.133333 h -0.26667 v 0.133334 h -0.26667 v 0.133333 h -0.4 v 0.133333 h -0.26666 v 0.133334 h -0.4 v 0.133333 h -0.4 v 0.133333 h -0.26667 v 0.133334 h -0.53333 v 0.133333 h -0.66667 v 0.133333 h -0.53333 v 0.133334 h -0.66667 v 0.133333 h -0.93333 v 0.133333 h -1.6 v 0.133334" id="path4726" inkscape:connector-curvature="0" style="fill:url(#linearGradient4724-0);fill-opacity:1;fill-rule:nonzero;stroke:none;stroke-width:0.13333333"></path></g></g></svg>