<svg width="146" height="61" viewBox="0 0 146 61" fill="none" xmlns="http://www.w3.org/2000/svg">
<g clip-path="url(#clip0_5249_5284)">
<path d="M133.941 1.08203H12.059C5.9936 1.08203 1.07666 6.02119 1.07666 12.1139V48.887C1.07666 54.9798 5.9936 59.9189 12.059 59.9189H133.941C140.006 59.9189 144.923 54.9798 144.923 48.887V12.1139C144.923 6.02119 140.006 1.08203 133.941 1.08203Z" fill="url(#paint0_linear_5249_5284)" stroke="white" stroke-width="2.16312"/>
<path d="M60.7028 41.8907C60.6863 41.7515 60.6195 41.6435 60.5023 41.5666C60.3851 41.4897 60.2414 41.4513 60.0711 41.4513C59.9466 41.4513 59.8377 41.4714 59.7443 41.5117C59.6518 41.552 59.5795 41.6074 59.5273 41.6779C59.4761 41.7483 59.4504 41.8284 59.4504 41.9182C59.4504 41.9932 59.4683 42.0578 59.504 42.1118C59.5406 42.1649 59.5873 42.2093 59.644 42.245C59.7008 42.2798 59.7603 42.3086 59.8226 42.3315C59.8848 42.3535 59.942 42.3713 59.9942 42.3851L60.2799 42.462C60.3531 42.4812 60.4346 42.5077 60.5243 42.5416C60.6149 42.5755 60.7014 42.6217 60.7838 42.6803C60.8671 42.738 60.9358 42.8121 60.9898 42.9028C61.0438 42.9934 61.0708 43.1046 61.0708 43.2365C61.0708 43.3885 61.031 43.5258 60.9514 43.6485C60.8726 43.7711 60.7573 43.8686 60.6053 43.941C60.4543 44.0133 60.2707 44.0494 60.0546 44.0494C59.8532 44.0494 59.6788 44.0169 59.5314 43.9519C59.385 43.8869 59.2696 43.7963 59.1854 43.68C59.1021 43.5638 59.0549 43.4287 59.0439 43.2749H59.3955C59.4046 43.3811 59.4403 43.469 59.5026 43.5386C59.5658 43.6073 59.6454 43.6585 59.7415 43.6924C59.8386 43.7254 59.943 43.7418 60.0546 43.7418C60.1846 43.7418 60.3014 43.7208 60.4048 43.6787C60.5083 43.6356 60.5902 43.5761 60.6506 43.5001C60.7111 43.4232 60.7413 43.3335 60.7413 43.231C60.7413 43.1376 60.7152 43.0616 60.663 43.003C60.6108 42.9444 60.5421 42.8968 60.457 42.8602C60.3719 42.8236 60.2799 42.7915 60.181 42.7641L59.8349 42.6652C59.6152 42.602 59.4413 42.5119 59.3131 42.3947C59.1849 42.2775 59.1208 42.1242 59.1208 41.9346C59.1208 41.7772 59.1634 41.6399 59.2485 41.5227C59.3346 41.4046 59.45 41.313 59.5946 41.248C59.7402 41.1821 59.9027 41.1492 60.0821 41.1492C60.2634 41.1492 60.4245 41.1817 60.5655 41.2467C60.7065 41.3107 60.8182 41.3986 60.9006 41.5103C60.9839 41.622 61.0278 41.7488 61.0324 41.8907H60.7028ZM62.729 41.1876H63.1355L64.0913 43.5221H64.1242L65.08 41.1876H65.4865V44H65.1679V41.8632H65.1404L64.2616 44H63.9539L63.0751 41.8632H63.0476V44H62.729V41.1876ZM67.3829 44H67.0259L68.0586 41.1876H68.4101L69.4428 44H69.0857L68.2453 41.6325H68.2233L67.3829 44ZM67.5148 42.9014H68.9539V43.2035H67.5148V42.9014ZM70.9791 44V41.1876H71.9294C72.1491 41.1876 72.3294 41.2251 72.4704 41.3002C72.6114 41.3744 72.7158 41.4764 72.7835 41.6064C72.8513 41.7364 72.8851 41.8843 72.8851 42.05C72.8851 42.2157 72.8513 42.3626 72.7835 42.4908C72.7158 42.619 72.6119 42.7197 72.4718 42.7929C72.3317 42.8652 72.1527 42.9014 71.9349 42.9014H71.1658V42.5938H71.9239C72.074 42.5938 72.1949 42.5718 72.2864 42.5279C72.3789 42.4839 72.4457 42.4217 72.4869 42.3411C72.529 42.2596 72.5501 42.1626 72.5501 42.05C72.5501 41.9374 72.529 41.839 72.4869 41.7548C72.4448 41.6705 72.3775 41.6055 72.285 41.5598C72.1926 41.5131 72.0704 41.4897 71.9184 41.4897H71.3196V44H70.9791ZM72.3029 42.7366L72.995 44H72.5995L71.9184 42.7366H72.3029ZM74.3971 41.4897V41.1876H76.5064V41.4897H75.622V44H75.2814V41.4897H74.3971ZM82.5792 42.0665H82.2386C82.2185 41.9685 82.1832 41.8825 82.1329 41.8083C82.0834 41.7342 82.023 41.6719 81.9516 41.6215C81.8811 41.5703 81.8028 41.5318 81.7168 41.5062C81.6307 41.4806 81.541 41.4677 81.4476 41.4677C81.2773 41.4677 81.1231 41.5108 80.9848 41.5968C80.8475 41.6829 80.7381 41.8097 80.6566 41.9772C80.5761 42.1448 80.5358 42.3503 80.5358 42.5938C80.5358 42.8373 80.5761 43.0429 80.6566 43.2104C80.7381 43.3779 80.8475 43.5047 80.9848 43.5908C81.1231 43.6768 81.2773 43.7199 81.4476 43.7199C81.541 43.7199 81.6307 43.707 81.7168 43.6814C81.8028 43.6558 81.8811 43.6178 81.9516 43.5674C82.023 43.5162 82.0834 43.4535 82.1329 43.3793C82.1832 43.3042 82.2185 43.2182 82.2386 43.1211H82.5792C82.5535 43.2649 82.5068 43.3935 82.4391 43.507C82.3713 43.6205 82.2871 43.7171 82.1864 43.7968C82.0857 43.8755 81.9726 43.9355 81.8472 43.9767C81.7227 44.0179 81.5895 44.0385 81.4476 44.0385C81.2078 44.0385 80.9944 43.9799 80.8077 43.8627C80.6209 43.7455 80.474 43.5789 80.3669 43.3628C80.2598 43.1468 80.2062 42.8904 80.2062 42.5938C80.2062 42.2972 80.2598 42.0408 80.3669 41.8248C80.474 41.6087 80.6209 41.4421 80.8077 41.3249C80.9944 41.2077 81.2078 41.1492 81.4476 41.1492C81.5895 41.1492 81.7227 41.1698 81.8472 41.2109C81.9726 41.2521 82.0857 41.3126 82.1864 41.3922C82.2871 41.4709 82.3713 41.5671 82.4391 41.6806C82.5068 41.7932 82.5535 41.9218 82.5792 42.0665ZM86.6007 42.5938C86.6007 42.8904 86.5471 43.1468 86.44 43.3628C86.3329 43.5789 86.186 43.7455 85.9992 43.8627C85.8124 43.9799 85.5991 44.0385 85.3593 44.0385C85.1194 44.0385 84.9061 43.9799 84.7193 43.8627C84.5326 43.7455 84.3856 43.5789 84.2785 43.3628C84.1714 43.1468 84.1179 42.8904 84.1179 42.5938C84.1179 42.2972 84.1714 42.0408 84.2785 41.8248C84.3856 41.6087 84.5326 41.4421 84.7193 41.3249C84.9061 41.2077 85.1194 41.1492 85.3593 41.1492C85.5991 41.1492 85.8124 41.2077 85.9992 41.3249C86.186 41.4421 86.3329 41.6087 86.44 41.8248C86.5471 42.0408 86.6007 42.2972 86.6007 42.5938ZM86.2711 42.5938C86.2711 42.3503 86.2304 42.1448 86.1489 41.9772C86.0683 41.8097 85.9589 41.6829 85.8207 41.5968C85.6834 41.5108 85.5296 41.4677 85.3593 41.4677C85.189 41.4677 85.0347 41.5108 84.8965 41.5968C84.7592 41.6829 84.6498 41.8097 84.5683 41.9772C84.4877 42.1448 84.4474 42.3503 84.4474 42.5938C84.4474 42.8373 84.4877 43.0429 84.5683 43.2104C84.6498 43.3779 84.7592 43.5047 84.8965 43.5908C85.0347 43.6768 85.189 43.7199 85.3593 43.7199C85.5296 43.7199 85.6834 43.6768 85.8207 43.5908C85.9589 43.5047 86.0683 43.3779 86.1489 43.2104C86.2304 43.0429 86.2711 42.8373 86.2711 42.5938ZM90.5017 41.1876V44H90.1721L88.6396 41.7918H88.6121V44H88.2716V41.1876H88.6011L90.1392 43.4013H90.1666V41.1876H90.5017ZM92.1276 41.4897V41.1876H94.2369V41.4897H93.3525V44H93.012V41.4897H92.1276ZM95.8608 44V41.1876H96.811C97.0308 41.1876 97.2111 41.2251 97.3521 41.3002C97.4931 41.3744 97.5975 41.4764 97.6652 41.6064C97.7329 41.7364 97.7668 41.8843 97.7668 42.05C97.7668 42.2157 97.7329 42.3626 97.6652 42.4908C97.5975 42.619 97.4935 42.7197 97.3535 42.7929C97.2134 42.8652 97.0344 42.9014 96.8165 42.9014H96.0475V42.5938H96.8056C96.9557 42.5938 97.0765 42.5718 97.1681 42.5279C97.2606 42.4839 97.3274 42.4217 97.3686 42.3411C97.4107 42.2596 97.4317 42.1626 97.4317 42.05C97.4317 41.9374 97.4107 41.839 97.3686 41.7548C97.3265 41.6705 97.2592 41.6055 97.1667 41.5598C97.0742 41.5131 96.952 41.4897 96.8001 41.4897H96.2013V44H95.8608ZM97.1846 42.7366L97.8767 44H97.4812L96.8001 42.7366H97.1846ZM99.5479 44H99.1909L100.224 41.1876H100.575L101.608 44H101.251L100.41 41.6325H100.388L99.5479 44ZM99.6797 42.9014H101.119V43.2035H99.6797V42.9014ZM105.275 42.0665H104.934C104.914 41.9685 104.879 41.8825 104.829 41.8083C104.779 41.7342 104.719 41.6719 104.647 41.6215C104.577 41.5703 104.499 41.5318 104.413 41.5062C104.327 41.4806 104.237 41.4677 104.143 41.4677C103.973 41.4677 103.819 41.5108 103.681 41.5968C103.543 41.6829 103.434 41.8097 103.352 41.9772C103.272 42.1448 103.232 42.3503 103.232 42.5938C103.232 42.8373 103.272 43.0429 103.352 43.2104C103.434 43.3779 103.543 43.5047 103.681 43.5908C103.819 43.6768 103.973 43.7199 104.143 43.7199C104.237 43.7199 104.327 43.707 104.413 43.6814C104.499 43.6558 104.577 43.6178 104.647 43.5674C104.719 43.5162 104.779 43.4535 104.829 43.3793C104.879 43.3042 104.914 43.2182 104.934 43.1211H105.275C105.249 43.2649 105.203 43.3935 105.135 43.507C105.067 43.6205 104.983 43.7171 104.882 43.7968C104.782 43.8755 104.668 43.9355 104.543 43.9767C104.419 44.0179 104.285 44.0385 104.143 44.0385C103.904 44.0385 103.69 43.9799 103.504 43.8627C103.317 43.7455 103.17 43.5789 103.063 43.3628C102.956 43.1468 102.902 42.8904 102.902 42.5938C102.902 42.2972 102.956 42.0408 103.063 41.8248C103.17 41.6087 103.317 41.4421 103.504 41.3249C103.69 41.2077 103.904 41.1492 104.143 41.1492C104.285 41.1492 104.419 41.1698 104.543 41.2109C104.668 41.2521 104.782 41.3126 104.882 41.3922C104.983 41.4709 105.067 41.5671 105.135 41.6806C105.203 41.7932 105.249 41.9218 105.275 42.0665ZM106.77 41.4897V41.1876H108.879V41.4897H107.995V44H107.654V41.4897H106.77ZM112.804 44H112.447L113.48 41.1876H113.831L114.864 44H114.507L113.666 41.6325H113.645L112.804 44ZM112.936 42.9014H114.375V43.2035H112.936V42.9014ZM118.246 41.1876H118.586V43.0497C118.586 43.242 118.541 43.4136 118.451 43.5647C118.361 43.7148 118.234 43.8334 118.07 43.9204C117.906 44.0064 117.714 44.0494 117.493 44.0494C117.273 44.0494 117.08 44.0064 116.917 43.9204C116.753 43.8334 116.625 43.7148 116.535 43.5647C116.445 43.4136 116.4 43.242 116.4 43.0497V41.1876H116.741V43.0223C116.741 43.1596 116.771 43.2818 116.831 43.3889C116.892 43.4951 116.978 43.5789 117.09 43.6402C117.202 43.7006 117.337 43.7308 117.493 43.7308C117.65 43.7308 117.784 43.7006 117.897 43.6402C118.01 43.5789 118.096 43.4951 118.155 43.3889C118.216 43.2818 118.246 43.1596 118.246 43.0223V41.1876ZM121.233 44H120.365V41.1876H121.271C121.544 41.1876 121.777 41.2439 121.971 41.3565C122.166 41.4682 122.314 41.6289 122.418 41.8385C122.521 42.0473 122.573 42.2972 122.573 42.5883C122.573 42.8813 122.521 43.1335 122.416 43.345C122.312 43.5555 122.16 43.7176 121.961 43.8311C121.761 43.9437 121.518 44 121.233 44ZM120.705 43.6979H121.211C121.443 43.6979 121.636 43.653 121.789 43.5633C121.942 43.4736 122.056 43.3459 122.131 43.1802C122.206 43.0145 122.243 42.8172 122.243 42.5883C122.243 42.3613 122.206 42.1658 122.132 42.0019C122.058 41.8371 121.947 41.7108 121.8 41.6229C121.652 41.5341 121.469 41.4897 121.249 41.4897H120.705V43.6979ZM124.583 41.1876V44H124.242V41.1876H124.583ZM126.21 41.4897V41.1876H128.32V41.4897H127.435V44H127.095V41.4897H126.21ZM131.481 41.8907C131.465 41.7515 131.398 41.6435 131.281 41.5666C131.164 41.4897 131.02 41.4513 130.85 41.4513C130.725 41.4513 130.616 41.4714 130.523 41.5117C130.431 41.552 130.358 41.6074 130.306 41.6779C130.255 41.7483 130.229 41.8284 130.229 41.9182C130.229 41.9932 130.247 42.0578 130.283 42.1118C130.319 42.1649 130.366 42.2093 130.423 42.245C130.479 42.2798 130.539 42.3086 130.601 42.3315C130.663 42.3535 130.721 42.3713 130.773 42.3851L131.059 42.462C131.132 42.4812 131.213 42.5077 131.303 42.5416C131.394 42.5755 131.48 42.6217 131.563 42.6803C131.646 42.738 131.714 42.8121 131.768 42.9028C131.823 42.9934 131.85 43.1046 131.85 43.2365C131.85 43.3885 131.81 43.5258 131.73 43.6485C131.651 43.7711 131.536 43.8686 131.384 43.941C131.233 44.0133 131.049 44.0494 130.833 44.0494C130.632 44.0494 130.458 44.0169 130.31 43.9519C130.164 43.8869 130.048 43.7963 129.964 43.68C129.881 43.5638 129.834 43.4287 129.823 43.2749H130.174C130.183 43.3811 130.219 43.469 130.281 43.5386C130.344 43.6073 130.424 43.6585 130.52 43.6924C130.617 43.7254 130.722 43.7418 130.833 43.7418C130.963 43.7418 131.08 43.7208 131.183 43.6787C131.287 43.6356 131.369 43.5761 131.429 43.5001C131.49 43.4232 131.52 43.3335 131.52 43.231C131.52 43.1376 131.494 43.0616 131.442 43.003C131.389 42.9444 131.321 42.8968 131.236 42.8602C131.151 42.8236 131.059 42.7915 130.96 42.7641L130.614 42.6652C130.394 42.602 130.22 42.5119 130.092 42.3947C129.964 42.2775 129.9 42.1242 129.9 41.9346C129.9 41.7772 129.942 41.6399 130.027 41.5227C130.113 41.4046 130.229 41.313 130.373 41.248C130.519 41.1821 130.681 41.1492 130.861 41.1492C131.042 41.1492 131.203 41.1817 131.344 41.2467C131.485 41.3107 131.597 41.3986 131.679 41.5103C131.763 41.622 131.806 41.7488 131.811 41.8907H131.481Z" fill="white"/>
<path d="M52.3302 32.2547L34.4611 49.5L32.8809 47.0625L49.7773 30.2438V30.1828L36.7099 16.8984L37.6824 14.1562L53.1204 30.0609L52.3302 32.2547Z" fill="white"/>
<path fill-rule="evenodd" clip-rule="evenodd" d="M24.4932 37.6781C24.6755 37.0688 24.9186 36.5203 25.1617 35.9718C26.195 33.8391 27.5928 31.95 29.1123 30.1828C31.1181 27.9281 33.3669 25.9172 35.9196 24.2719C37.0136 23.5406 38.1684 22.9312 39.4447 22.5047C39.5055 22.4437 39.6271 22.4437 39.7486 22.3828L39.0193 23.2969C38.2292 24.2719 37.3783 25.2469 36.7097 26.3437C36.6489 26.4656 36.5881 26.4656 36.4665 26.4656C35.9803 26.5875 35.4333 26.7094 34.8863 26.7094C35.0687 26.9531 35.3726 27.075 35.6156 27.1969C35.7372 27.2578 35.9803 27.2578 36.0411 27.4406C36.0411 27.5625 35.8588 27.7453 35.798 27.8672C35.6764 28.1719 35.4333 28.3547 35.1294 28.4156C34.6432 28.5375 34.157 28.6594 33.61 28.6594C33.61 28.7812 33.6708 28.7812 33.7315 28.8422C34.0354 29.0859 34.4001 29.2687 34.7647 29.3906C34.8863 29.4516 34.8863 29.5125 34.8255 29.6344C34.704 29.9391 34.4609 30.0609 34.157 30.1219C33.3669 30.3656 32.5767 30.5484 31.7866 30.6094H31.7258C31.9082 30.7922 32.0905 30.9141 32.2728 31.0359C32.6375 31.2187 33.0022 31.3406 33.4276 31.4625C33.4884 31.4625 33.5492 31.5234 33.4884 31.5844C33.1845 32.0109 32.8806 32.4375 32.4552 32.7422C32.1513 33.0469 31.7866 33.0469 31.3611 33.0469H29.9632C29.5986 33.0469 29.2339 33.0469 28.8692 33.1078C28.5653 33.1687 28.3222 33.2906 28.1399 33.5344C27.5321 34.2047 27.1674 35.0578 26.742 35.85L26.5596 36.2156C26.4381 36.7031 26.1342 36.9469 25.7087 37.1297C25.3441 37.1906 24.9186 37.4344 24.4932 37.6781Z" fill="white"/>
<path opacity="0.98" d="M11.7293 27.8062L29.5983 10.5L31.1786 12.9375L14.2821 29.8172V29.8781L27.4103 43.1016L26.4378 45.8437L11 30L11.7293 27.8062Z" fill="white"/>
<path d="M59.6193 14.2769L61.5371 19.7396H61.6129L63.5307 14.2769H64.3507L61.9785 20.7662H61.171L58.7988 14.2769H59.6193ZM67.2225 20.7662V14.2769H71.121V14.9739H68.0046V17.1667H70.9194V17.8637H68.0046V20.0691H71.1718V20.7662H67.2225ZM74.3967 20.7662V14.2769H76.5794C77.0841 14.2769 77.4985 14.3635 77.8223 14.5367C78.1462 14.7078 78.3857 14.9433 78.5416 15.2433C78.697 15.5432 78.775 15.8844 78.775 16.2668C78.775 16.6491 78.697 16.9882 78.5416 17.2839C78.3857 17.5796 78.1471 17.812 77.8253 17.981C77.5036 18.1479 77.0923 18.2313 76.5919 18.2313H74.8257V17.5215H76.5669C76.9114 17.5215 77.1892 17.4708 77.3994 17.3694C77.6117 17.2681 77.7655 17.1244 77.8602 16.9385C77.9567 16.7505 78.0049 16.5266 78.0049 16.2668C78.0049 16.0069 77.9567 15.7798 77.8602 15.5855C77.7633 15.3912 77.6087 15.2412 77.3964 15.1356C77.1841 15.0278 76.9033 14.9739 76.554 14.9739H75.1788V20.7662H74.3967ZM77.4373 17.8511L79.0274 20.7662H78.1186L76.554 17.8511H77.4373ZM82.726 14.2769V20.7662H81.9439V14.2769H82.726ZM86.1598 20.7662V14.2769H90.0334V14.9739H86.9424V17.1667H89.7431V17.8637H86.9424V20.7662H86.1598ZM94.021 14.2769V20.7662H93.2389V14.2769H94.021ZM97.4548 20.7662V14.2769H101.354V14.9739H98.2374V17.1667H101.152V17.8637H98.2374V20.0691H101.404V20.7662H97.4548ZM106.623 20.7662H104.629V14.2769H106.711C107.338 14.2769 107.874 14.4068 108.32 14.6666C108.766 14.9243 109.107 15.295 109.345 15.7788C109.583 16.2604 109.701 16.8371 109.701 17.5089C109.701 18.1848 109.581 18.7668 109.342 19.2548C109.102 19.7406 108.753 20.1146 108.295 20.3765C107.836 20.6363 107.279 20.7662 106.623 20.7662ZM105.411 20.0691H106.572C107.106 20.0691 107.549 19.9656 107.9 19.7586C108.251 19.5516 108.513 19.2569 108.686 18.8745C108.858 18.4922 108.944 18.037 108.944 17.5089C108.944 16.985 108.859 16.534 108.689 16.1559C108.519 15.7756 108.264 15.4841 107.925 15.2813C107.587 15.0764 107.165 14.9739 106.661 14.9739H105.411V20.0691ZM117.243 20.7662V14.2769H119.501C119.951 14.2769 120.322 14.355 120.615 14.5113C120.907 14.6655 121.124 14.8736 121.267 15.1356C121.41 15.3954 121.482 15.6837 121.482 16.0006C121.482 16.2794 121.433 16.5097 121.334 16.6914C121.237 16.873 121.109 17.0167 120.949 17.1223C120.791 17.2279 120.62 17.3061 120.435 17.3567V17.4201C120.633 17.4328 120.831 17.5025 121.031 17.6293C121.231 17.756 121.398 17.9377 121.532 18.1743C121.667 18.4109 121.734 18.7003 121.734 19.0425C121.734 19.3678 121.661 19.6603 121.514 19.9202C121.367 20.18 121.134 20.386 120.817 20.5381C120.499 20.6902 120.086 20.7662 119.577 20.7662H117.243ZM118.025 20.0691H119.577C120.088 20.0691 120.45 19.9698 120.665 19.7713C120.882 19.5706 120.99 19.3277 120.99 19.0425C120.99 18.8228 120.934 18.62 120.823 18.4341C120.711 18.2461 120.553 18.0961 120.347 17.9841C120.14 17.8701 119.897 17.813 119.615 17.813H118.025V20.0691ZM118.025 17.1286H119.476C119.711 17.1286 119.924 17.0822 120.113 16.9892C120.304 16.8963 120.456 16.7653 120.567 16.5963C120.681 16.4273 120.738 16.2287 120.738 16.0006C120.738 15.7154 120.639 15.4735 120.441 15.275C120.243 15.0743 119.93 14.9739 119.501 14.9739H118.025V17.1286ZM124.33 14.2769H125.226L127.017 17.3061H127.093L128.885 14.2769H129.781L127.446 18.0919V20.7662H126.664V18.0919L124.33 14.2769Z" fill="white"/>
<path d="M68.7911 33.0006C68.7911 34.4853 68.2494 35.7226 67.1662 36.7125L68.3288 37.9031H66.9981L66.3958 37.2868C65.6208 37.763 64.7896 38.0012 63.9025 38.0012C62.6419 38.0012 61.5073 37.5249 60.4988 36.5724C59.4997 35.6106 59 34.42 59 33.0006C59 31.5812 59.4997 30.3952 60.4988 29.4427C61.5073 28.4809 62.6419 28 63.9025 28C65.1912 28 66.3258 28.4762 67.3063 29.4287C68.2962 30.3812 68.7911 31.5718 68.7911 33.0006ZM63.9025 36.8946C64.5283 36.8946 65.0931 36.7545 65.5974 36.4744L63.5243 34.3453H64.855L66.3818 35.9141C67.1662 35.1577 67.5584 34.1865 67.5584 33.0006C67.5584 31.8613 67.1988 30.9275 66.4799 30.1991C65.7701 29.4614 64.9111 29.0926 63.9025 29.0926C62.95 29.0926 62.1002 29.4614 61.3532 30.1991C60.6154 30.9369 60.2466 31.8707 60.2466 33.0006C60.2466 34.1212 60.6154 35.0503 61.3532 35.788C62.1002 36.5257 62.95 36.8946 63.9025 36.8946ZM76.2824 30.6194H77.403V37.9031H76.2824V36.1382C76.1892 36.5397 75.909 36.9506 75.442 37.3708C74.9751 37.7911 74.3868 38.0012 73.6771 38.0012C72.8927 38.0012 72.2437 37.749 71.7301 37.2448C71.2166 36.7405 70.9597 35.9608 70.9597 34.9056V30.6194H72.0802V34.8776C72.0802 35.6153 72.2391 36.1569 72.5565 36.5024C72.8741 36.8479 73.3037 37.0207 73.8452 37.0207C74.4523 37.0207 74.9797 36.7872 75.428 36.3203C75.8762 35.844 76.1612 35.3304 76.2824 34.7795V30.6194ZM80.9638 28.0981V29.1486H79.8292V28.0981H80.9638ZM80.9638 30.6194V37.9031H79.8292V30.6194H80.9638ZM84.6307 28.0981V37.9031H83.4961V28.0981H84.6307ZM88.231 28.0981V37.9031H87.0964V28.0981H88.231ZM98.2186 37.9031L97 35.1717H92.6297L91.4111 37.9031H90.1644L94.6888 28.0981H94.9409L99.4512 37.9031H98.2186ZM93.0639 34.1912H96.5657L94.8148 30.2412L93.0639 34.1912ZM106.527 30.6194H107.647V37.9031H106.527V36.1382C106.433 36.5397 106.153 36.9506 105.686 37.3708C105.219 37.7911 104.631 38.0012 103.921 38.0012C103.137 38.0012 102.488 37.749 101.974 37.2448C101.461 36.7405 101.204 35.9608 101.204 34.9056V30.6194H102.325V34.8776C102.325 35.6153 102.483 36.1569 102.801 36.5024C103.118 36.8479 103.548 37.0207 104.089 37.0207C104.696 37.0207 105.224 36.7872 105.672 36.3203C106.121 35.844 106.405 35.3304 106.527 34.7795V30.6194ZM115.704 28.0981H116.825V37.9031H115.704V36.4744C115.508 36.9226 115.181 37.2915 114.724 37.5809C114.266 37.8611 113.757 38.0012 113.197 38.0012C112.319 38.0012 111.525 37.6697 110.816 37.0066C110.106 36.3436 109.751 35.4285 109.751 34.2612C109.751 33.6636 109.858 33.122 110.073 32.6364C110.288 32.1415 110.564 31.7493 110.9 31.4598C111.236 31.161 111.6 30.9322 111.992 30.7734C112.394 30.6147 112.795 30.5353 113.197 30.5353C113.766 30.5353 114.28 30.6707 114.738 30.9415C115.195 31.2123 115.517 31.5672 115.704 32.0061V28.0981ZM111.628 36.2923C112.132 36.7779 112.702 37.0207 113.337 37.0207C113.972 37.0207 114.532 36.7872 115.018 36.3203C115.503 35.844 115.746 35.1577 115.746 34.2612C115.746 33.3648 115.503 32.6831 115.018 32.2162C114.532 31.7493 113.972 31.5158 113.337 31.5158C112.702 31.5158 112.132 31.7586 111.628 32.2442C111.124 32.7298 110.872 33.4021 110.872 34.2612C110.872 35.1203 111.124 35.7974 111.628 36.2923ZM120.307 28.0981V29.1486H119.172V28.0981H120.307ZM120.307 30.6194V37.9031H119.172V30.6194H120.307ZM125.011 37.0066C125.328 37.0066 125.65 36.932 125.977 36.7825V37.735C125.641 37.9031 125.225 37.9872 124.731 37.9872C123.787 37.9872 123.316 37.4689 123.316 36.4324V31.5438H122.419V30.6194H123.316V29.3587H124.436V30.6194H125.963V31.5438H124.436V36.3343C124.436 36.7825 124.628 37.0066 125.011 37.0066ZM131.725 32.3562C131.399 31.7773 130.913 31.4878 130.269 31.4878C129.914 31.4878 129.624 31.5812 129.4 31.7679C129.185 31.9454 129.078 32.1648 129.078 32.4263C129.078 32.6691 129.153 32.8745 129.302 33.0426C129.461 33.2107 129.732 33.3601 130.115 33.4908L130.857 33.757C131.576 34.0091 132.113 34.2846 132.468 34.5834C132.823 34.8822 133 35.3211 133 35.9001C133 36.5351 132.725 37.044 132.174 37.4269C131.623 37.8097 131.006 38.0012 130.325 38.0012C129.68 38.0012 129.092 37.8284 128.56 37.4829C128.027 37.1374 127.682 36.6751 127.523 36.0962L128.504 35.83C128.625 36.1942 128.859 36.4884 129.204 36.7125C129.55 36.9273 129.923 37.0347 130.325 37.0347C130.717 37.0347 131.067 36.932 131.375 36.7265C131.683 36.5117 131.837 36.2363 131.837 35.9001C131.837 35.6106 131.739 35.3725 131.543 35.1857C131.347 34.999 131.048 34.8355 130.647 34.6955L129.806 34.4013C129.134 34.1585 128.653 33.8877 128.364 33.5889C128.074 33.2901 127.929 32.9072 127.929 32.4403C127.929 31.8987 128.153 31.4458 128.602 31.0816C129.059 30.7174 129.61 30.5353 130.255 30.5353C131.422 30.5353 132.253 31.0536 132.748 32.0901L131.725 32.3562Z" fill="white"/>
</g>
<defs>
<linearGradient id="paint0_linear_5249_5284" x1="73" y1="1.08203" x2="73" y2="59.9189" gradientUnits="userSpaceOnUse">
<stop stop-color="#1C1E2E"/>
<stop offset="1" stop-color="#11121A"/>
</linearGradient>
<clipPath id="clip0_5249_5284">
<rect width="146" height="61" fill="white"/>
</clipPath>
</defs>
</svg>
