<svg width="147" height="61" viewBox="0 0 147 61" fill="none" xmlns="http://www.w3.org/2000/svg">
<g clip-path="url(#clip0_5249_5299)">
<path d="M134.688 1.08203H12.806C6.74067 1.08203 1.82373 6.02119 1.82373 12.1139V48.887C1.82373 54.9798 6.74067 59.9189 12.806 59.9189H134.688C140.753 59.9189 145.67 54.9798 145.67 48.887V12.1139C145.67 6.02119 140.753 1.08203 134.688 1.08203Z" fill="url(#paint0_linear_5249_5299)" stroke="#FFE500" stroke-width="2.16312"/>
<path d="M130.861 34.7977V32.0142H134V34.891C134 36.6284 133.133 38.3097 130.61 38.3097H130.052C127.375 38.3097 126.527 36.7778 126.527 34.6295V27.5681C126.527 25.5692 127.452 24 130.033 24H130.61C133.153 24 134 25.4198 134 27.2505V29.5296H130.861V27.3813C130.861 26.9329 130.745 26.6901 130.34 26.6901C129.936 26.6901 129.82 26.8769 129.82 27.3813V34.7977C129.82 35.2647 129.955 35.5262 130.36 35.5262C130.745 35.5262 130.861 35.2273 130.861 34.7977Z" fill="#FFE500"/>
<path d="M125.869 24.1865V38.0852H122.691V24.1865H125.869Z" fill="#FFE500"/>
<path d="M115.426 24.1865H122.167V27.0634H120.376V38.0852H117.217V27.0634H115.426V24.1865Z" fill="#FFE500"/>
<path d="M111.088 24H111.8C114.131 24 114.978 25.1022 114.978 26.8395V28.5021H111.916V27.0076C111.916 26.634 111.82 26.4099 111.435 26.4099C111.069 26.4099 110.953 26.634 110.953 27.0263V27.3813C110.953 27.9604 111.088 28.2966 111.646 28.801L113.284 30.2208C114.728 31.5098 115.171 32.4438 115.171 33.957V34.6482C115.171 36.8152 114.073 38.2723 111.627 38.2723H110.934C108.719 38.2723 107.602 37.2449 107.602 35.2086V32.9856H110.722V34.9097C110.722 35.3767 110.856 35.6383 111.261 35.6383C111.646 35.6383 111.781 35.3581 111.781 34.8163V34.4427C111.781 33.6581 111.723 33.3031 111.03 32.6867L109.374 31.2483C108.16 30.2021 107.736 29.0812 107.736 27.6615V27.0076C107.736 25.1582 108.854 24 111.088 24Z" fill="#FFE500"/>
<path d="M107.078 24.1865V38.0852H103.9V24.1865H107.078Z" fill="#FFE500"/>
<path d="M94.1953 38.0852V24.1865H97.9896L98.7793 30.6875L99.6075 24.1865H103.19V38.0852H100.455V30.5007L99.2416 38.0852H98.1052L96.8918 30.5007V38.0852H94.1953Z" fill="#FFE500"/>
<path d="M93.4983 24.1865V38.0852H90.3203V24.1865H93.4983Z" fill="#FFE500"/>
<path d="M85.7147 24H86.4273C88.7578 24 89.6053 25.1022 89.6053 26.8395V28.5021H86.5429V27.0076C86.5429 26.634 86.4466 26.4099 86.0614 26.4099C85.6954 26.4099 85.5799 26.634 85.5799 27.0263V27.3813C85.5799 27.9604 85.7147 28.2966 86.2733 28.801L87.9104 30.2208C89.355 31.5098 89.7979 32.4438 89.7979 33.957V34.6482C89.7979 36.8152 88.7001 38.2723 86.254 38.2723H85.5606C83.3457 38.2723 82.2285 37.2449 82.2285 35.2086V32.9856H85.3487V34.9097C85.3487 35.3767 85.4835 35.6383 85.888 35.6383C86.2733 35.6383 86.4081 35.3581 86.4081 34.8163V34.4427C86.4081 33.6581 86.3503 33.3031 85.6569 32.6867L84.0005 31.2483C82.7871 30.2021 82.3634 29.0812 82.3634 27.6615V27.0076C82.3634 25.1582 83.4805 24 85.7147 24Z" fill="#FFE500"/>
<path d="M77.7581 24H78.4708C80.8013 24 81.6488 25.1022 81.6488 26.8395V28.5021H78.5863V27.0076C78.5863 26.634 78.49 26.4099 78.1048 26.4099C77.7388 26.4099 77.6233 26.634 77.6233 27.0263V27.3813C77.6233 27.9604 77.7581 28.2966 78.3167 28.801L79.9538 30.2208C81.3984 31.5098 81.8414 32.4438 81.8414 33.957V34.6482C81.8414 36.8152 80.7435 38.2723 78.2974 38.2723H77.604C75.3891 38.2723 74.272 37.2449 74.272 35.2086V32.9856H77.3922V34.9097C77.3922 35.3767 77.527 35.6383 77.9315 35.6383C78.3167 35.6383 78.4515 35.3581 78.4515 34.8163V34.4427C78.4515 33.6581 78.3938 33.3031 77.7003 32.6867L76.0439 31.2483C74.8305 30.2021 74.4068 29.0812 74.4068 27.6615V27.0076C74.4068 25.1582 75.5239 24 77.7581 24Z" fill="#FFE500"/>
<path d="M67.8623 24.1865H73.8138V27.0634H71.0018V29.4359H73.2553V32.3875H71.0018V35.1523H73.9294V38.0852H67.8623V24.1865Z" fill="#FFE500"/>
<path d="M64.6803 32.7238H63.1587V38.0852H60V24.1865H64.584C66.4908 24.1865 67.2805 25.1206 67.2805 26.9887V29.8656C67.2805 31.6776 66.3174 32.7238 64.6803 32.7238ZM63.1587 26.6151V30.1644H63.5439C64.0062 30.1644 64.1025 29.9216 64.1025 29.4919V27.3063C64.1025 26.8766 64.0254 26.6151 63.5439 26.6151H63.1587Z" fill="#FFE500"/>
<path d="M60.3663 14.2769L62.2842 19.7396H62.36L64.2778 14.2769H65.0978L62.7256 20.7662H61.9181L59.5459 14.2769H60.3663ZM67.9695 20.7662V14.2769H71.868V14.9739H68.7517V17.1667H71.6665V17.8637H68.7517V20.0691H71.9189V20.7662H67.9695ZM75.1438 20.7662V14.2769H77.3265C77.8312 14.2769 78.2455 14.3635 78.5694 14.5367C78.8933 14.7078 79.1327 14.9433 79.2886 15.2433C79.4441 15.5432 79.5221 15.8844 79.5221 16.2668C79.5221 16.6491 79.4441 16.9882 79.2886 17.2839C79.1327 17.5796 78.8941 17.812 78.5724 17.981C78.2507 18.1479 77.8394 18.2313 77.339 18.2313H75.5727V17.5215H77.314C77.6585 17.5215 77.9363 17.4708 78.1465 17.3694C78.3588 17.2681 78.5125 17.1244 78.6073 16.9385C78.7038 16.7505 78.752 16.5266 78.752 16.2668C78.752 16.0069 78.7038 15.7798 78.6073 15.5855C78.5104 15.3912 78.3558 15.2412 78.1435 15.1356C77.9311 15.0278 77.6503 14.9739 77.3011 14.9739H75.9259V20.7662H75.1438ZM78.1844 17.8511L79.7744 20.7662H78.8657L77.3011 17.8511H78.1844ZM83.4731 14.2769V20.7662H82.691V14.2769H83.4731ZM86.9069 20.7662V14.2769H90.7804V14.9739H87.6894V17.1667H90.4901V17.8637H87.6894V20.7662H86.9069ZM94.7681 14.2769V20.7662H93.986V14.2769H94.7681ZM98.2019 20.7662V14.2769H102.101V14.9739H98.9844V17.1667H101.899V17.8637H98.9844V20.0691H102.151V20.7662H98.2019ZM107.37 20.7662H105.376V14.2769H107.458C108.085 14.2769 108.621 14.4068 109.067 14.6666C109.513 14.9243 109.854 15.295 110.092 15.7788C110.33 16.2604 110.448 16.8371 110.448 17.5089C110.448 18.1848 110.328 18.7668 110.089 19.2548C109.849 19.7406 109.5 20.1146 109.042 20.3765C108.583 20.6363 108.026 20.7662 107.37 20.7662ZM106.158 20.0691H107.319C107.853 20.0691 108.296 19.9656 108.647 19.7586C108.999 19.5516 109.26 19.2569 109.433 18.8745C109.605 18.4922 109.692 18.037 109.692 17.5089C109.692 16.985 109.606 16.534 109.436 16.1559C109.266 15.7756 109.011 15.4841 108.673 15.2813C108.334 15.0764 107.912 14.9739 107.408 14.9739H106.158V20.0691ZM117.99 20.7662V14.2769H120.248C120.698 14.2769 121.069 14.355 121.362 14.5113C121.654 14.6655 121.872 14.8736 122.015 15.1356C122.158 15.3954 122.229 15.6837 122.229 16.0006C122.229 16.2794 122.18 16.5097 122.081 16.6914C121.984 16.873 121.856 17.0167 121.696 17.1223C121.538 17.2279 121.367 17.3061 121.182 17.3567V17.4201C121.38 17.4328 121.578 17.5025 121.778 17.6293C121.978 17.756 122.145 17.9377 122.279 18.1743C122.414 18.4109 122.481 18.7003 122.481 19.0425C122.481 19.3678 122.408 19.6603 122.261 19.9202C122.114 20.18 121.881 20.386 121.564 20.5381C121.246 20.6902 120.833 20.7662 120.324 20.7662H117.99ZM118.772 20.0691H120.324C120.835 20.0691 121.198 19.9698 121.412 19.7713C121.629 19.5706 121.737 19.3277 121.737 19.0425C121.737 18.8228 121.681 18.62 121.57 18.4341C121.459 18.2461 121.3 18.0961 121.094 17.9841C120.887 17.8701 120.644 17.813 120.362 17.813H118.772V20.0691ZM118.772 17.1286H120.223C120.458 17.1286 120.671 17.0822 120.86 16.9892C121.052 16.8963 121.203 16.7653 121.314 16.5963C121.428 16.4273 121.485 16.2287 121.485 16.0006C121.485 15.7154 121.386 15.4735 121.188 15.275C120.99 15.0743 120.677 14.9739 120.248 14.9739H118.772V17.1286ZM125.077 14.2769H125.973L127.765 17.3061H127.84L129.632 14.2769H130.528L128.193 18.0919V20.7662H127.411V18.0919L125.077 14.2769Z" fill="#FFE500"/>
<mask id="mask0_5249_5299" style="mask-type:luminance" maskUnits="userSpaceOnUse" x="12" y="10" width="40" height="40">
<path d="M51.3716 10.5H12V49.5H51.3716V10.5Z" fill="white"/>
</mask>
<g mask="url(#mask0_5249_5299)">
<path fill-rule="evenodd" clip-rule="evenodd" d="M20.9481 17.6153C20.6814 17.8523 20.6535 18.2565 20.8852 18.5272L27.1943 25.9001L26.0122 26.996L20.5313 21.738C20.3079 21.5238 19.9554 21.5171 19.724 21.7227C19.486 21.9343 19.4605 22.2948 19.6665 22.5371L25.2679 29.1251L24.068 30.203L19.6946 25.7641C19.529 25.596 19.259 25.5871 19.0825 25.7439C18.9113 25.896 18.8863 26.1527 19.0248 26.3344L22.8155 31.3057C23.4444 32.1304 24.0095 33.0012 24.5057 33.9104L24.9017 34.636C25.5486 33.1359 25.9521 31.5394 26.0948 29.9064L26.1038 29.8037L27.7187 29.9421L27.7097 30.0448C27.521 32.2045 26.9188 34.3072 25.936 36.2389L33.8293 41.6941C35.0445 41.4793 36.1698 40.9384 37.0782 40.1314L37.1308 40.0844L38.2132 41.2796L38.1604 41.3266C37.3101 42.0824 36.3099 42.6493 35.2276 42.9984L40.2757 49.0713L39.0019 50.0644L33.5079 43.4298L24.437 37.1606L23.0798 34.6741C22.6225 33.8361 22.1017 33.0335 21.5221 32.2734L17.7314 27.3022C17.0851 26.4546 17.2019 25.258 18.0001 24.5487C18.2562 24.3211 18.5545 24.1684 18.8672 24.0895L18.4267 23.5714C17.6567 22.6658 17.7519 21.3181 18.6417 20.5275C19.0299 20.1825 19.5094 19.9974 19.9954 19.9706L19.6487 19.5654C18.8496 18.6316 18.9458 17.2375 19.8658 16.4201C20.7673 15.619 22.1434 15.6548 23.0013 16.5015L23.2655 16.7622C23.3124 16.2391 23.5524 15.7327 23.9762 15.3562C24.8027 14.6217 26.0563 14.6259 26.8778 15.3659L32.6852 20.597C32.8088 20.324 32.9907 20.0725 33.2279 19.8617C34.0864 19.0989 35.3913 19.1143 36.2314 19.897L41.0268 24.3664C41.8336 25.1184 42.304 26.1582 42.3338 27.2552L42.5182 34.0605L48.5845 37.509L51.3829 38.4419V40.1642L47.8838 38.9619L41.9186 35.5708C41.3596 36.6111 40.5536 37.5109 39.5605 38.1872L39.4681 38.2503L38.5494 36.9272L38.6422 36.8643C39.7069 36.1391 40.4969 35.0856 40.8914 33.8712L40.7133 27.2983C40.6953 26.629 40.4083 25.9946 39.9161 25.5358L35.1205 21.0665C34.8939 20.8553 34.5419 20.8511 34.3103 21.0569C34.0895 21.2531 34.0469 21.58 34.2104 21.8253L35.992 24.4992L36.1895 26.0399L34.6704 26.5191L32.6143 22.7034L25.7873 16.5538C25.581 16.368 25.2661 16.3669 25.0585 16.5514C24.843 16.7429 24.8168 17.068 24.9989 17.291L30.0086 23.4241L28.8064 24.4978L21.8572 17.6389C21.6085 17.3934 21.2095 17.3831 20.9481 17.6153ZM30.6793 29.5032L30.0769 34.3673L28.468 34.1719L29.0705 29.3077L30.6793 29.5032ZM34.6961 30.9995L35.2709 33.6681L33.6858 34.0032L33.1107 31.3346L34.6961 30.9995Z" fill="#FFE500"/>
</g>
<path fill-rule="evenodd" clip-rule="evenodd" d="M12 10.5H51.3716V49.5H12V10.5ZM13.8312 12.314V47.686H49.5403V12.314H13.8312Z" fill="#FFE500"/>
<path d="M62.6037 42.0665H62.2631C62.243 41.9685 62.2077 41.8825 62.1574 41.8083C62.1079 41.7342 62.0475 41.6719 61.9761 41.6215C61.9056 41.5703 61.8273 41.5318 61.7413 41.5062C61.6552 41.4806 61.5655 41.4677 61.4721 41.4677C61.3018 41.4677 61.1476 41.5108 61.0093 41.5968C60.872 41.6829 60.7626 41.8097 60.6811 41.9772C60.6006 42.1448 60.5603 42.3503 60.5603 42.5938C60.5603 42.8373 60.6006 43.0429 60.6811 43.2104C60.7626 43.3779 60.872 43.5047 61.0093 43.5908C61.1476 43.6768 61.3018 43.7199 61.4721 43.7199C61.5655 43.7199 61.6552 43.707 61.7413 43.6814C61.8273 43.6558 61.9056 43.6178 61.9761 43.5674C62.0475 43.5162 62.1079 43.4535 62.1574 43.3793C62.2077 43.3042 62.243 43.2182 62.2631 43.1211H62.6037C62.578 43.2649 62.5313 43.3935 62.4636 43.507C62.3958 43.6205 62.3116 43.7171 62.2109 43.7968C62.1102 43.8755 61.9971 43.9355 61.8717 43.9767C61.7472 44.0179 61.614 44.0385 61.4721 44.0385C61.2323 44.0385 61.0189 43.9799 60.8322 43.8627C60.6454 43.7455 60.4985 43.5789 60.3914 43.3628C60.2843 43.1468 60.2307 42.8904 60.2307 42.5938C60.2307 42.2972 60.2843 42.0408 60.3914 41.8248C60.4985 41.6087 60.6454 41.4421 60.8322 41.3249C61.0189 41.2077 61.2323 41.1492 61.4721 41.1492C61.614 41.1492 61.7472 41.1698 61.8717 41.2109C61.9971 41.2521 62.1102 41.3126 62.2109 41.3922C62.3116 41.4709 62.3958 41.5671 62.4636 41.6806C62.5313 41.7932 62.578 41.9218 62.6037 42.0665ZM64.2522 44V41.1876H65.2025C65.4222 41.1876 65.6026 41.2251 65.7436 41.3002C65.8846 41.3744 65.9889 41.4764 66.0567 41.6064C66.1244 41.7364 66.1583 41.8843 66.1583 42.05C66.1583 42.2157 66.1244 42.3626 66.0567 42.4908C65.9889 42.619 65.885 42.7197 65.7449 42.7929C65.6049 42.8652 65.4259 42.9014 65.208 42.9014H64.439V42.5938H65.197C65.3472 42.5938 65.468 42.5718 65.5596 42.5279C65.652 42.4839 65.7188 42.4217 65.76 42.3411C65.8022 42.2596 65.8232 42.1626 65.8232 42.05C65.8232 41.9374 65.8022 41.839 65.76 41.7548C65.7179 41.6705 65.6506 41.6055 65.5582 41.5598C65.4657 41.5131 65.3435 41.4897 65.1915 41.4897H64.5928V44H64.2522ZM65.576 42.7366L66.2681 44H65.8727L65.1915 42.7366H65.576ZM67.4879 41.1876H67.8779L68.6579 42.5004H68.6909L69.4709 41.1876H69.8609L68.8447 42.841V44H68.5041V42.841L67.4879 41.1876ZM71.3996 44V41.1876H72.3499C72.5705 41.1876 72.7509 41.2274 72.8909 41.3071C73.0319 41.3858 73.1363 41.4925 73.204 41.627C73.2718 41.7616 73.3056 41.9118 73.3056 42.0775C73.3056 42.2432 73.2718 42.3938 73.204 42.5293C73.1372 42.6648 73.0337 42.7728 72.8937 42.8533C72.7536 42.933 72.5742 42.9728 72.3554 42.9728H71.6742V42.6707H72.3444C72.4954 42.6707 72.6167 42.6446 72.7083 42.5924C72.7998 42.5402 72.8662 42.4698 72.9074 42.381C72.9495 42.2912 72.9706 42.1901 72.9706 42.0775C72.9706 41.9649 72.9495 41.8642 72.9074 41.7754C72.8662 41.6865 72.7994 41.617 72.7069 41.5666C72.6144 41.5154 72.4918 41.4897 72.3389 41.4897H71.7401V44H71.3996ZM74.7987 41.4897V41.1876H76.908V41.4897H76.0236V44H75.6831V41.4897H74.7987ZM80.7877 42.5938C80.7877 42.8904 80.7342 43.1468 80.6271 43.3628C80.5199 43.5789 80.373 43.7455 80.1862 43.8627C79.9995 43.9799 79.7862 44.0385 79.5463 44.0385C79.3065 44.0385 79.0931 43.9799 78.9064 43.8627C78.7196 43.7455 78.5727 43.5789 78.4656 43.3628C78.3585 43.1468 78.3049 42.8904 78.3049 42.5938C78.3049 42.2972 78.3585 42.0408 78.4656 41.8248C78.5727 41.6087 78.7196 41.4421 78.9064 41.3249C79.0931 41.2077 79.3065 41.1492 79.5463 41.1492C79.7862 41.1492 79.9995 41.2077 80.1862 41.3249C80.373 41.4421 80.5199 41.6087 80.6271 41.8248C80.7342 42.0408 80.7877 42.2972 80.7877 42.5938ZM80.4581 42.5938C80.4581 42.3503 80.4174 42.1448 80.3359 41.9772C80.2554 41.8097 80.146 41.6829 80.0077 41.5968C79.8704 41.5108 79.7166 41.4677 79.5463 41.4677C79.376 41.4677 79.2218 41.5108 79.0835 41.5968C78.9462 41.6829 78.8368 41.8097 78.7553 41.9772C78.6748 42.1448 78.6345 42.3503 78.6345 42.5938C78.6345 42.8373 78.6748 43.0429 78.7553 43.2104C78.8368 43.3779 78.9462 43.5047 79.0835 43.5908C79.2218 43.6768 79.376 43.7199 79.5463 43.7199C79.7166 43.7199 79.8704 43.6768 80.0077 43.5908C80.146 43.5047 80.2554 43.3779 80.3359 43.2104C80.4174 43.0429 80.4581 42.8373 80.4581 42.5938ZM86.1825 41.8907C86.166 41.7515 86.0992 41.6435 85.982 41.5666C85.8648 41.4897 85.7211 41.4513 85.5508 41.4513C85.4263 41.4513 85.3173 41.4714 85.224 41.5117C85.1315 41.552 85.0592 41.6074 85.007 41.6779C84.9557 41.7483 84.9301 41.8284 84.9301 41.9182C84.9301 41.9932 84.9479 42.0578 84.9836 42.1118C85.0203 42.1649 85.067 42.2093 85.1237 42.245C85.1805 42.2798 85.24 42.3086 85.3022 42.3315C85.3645 42.3535 85.4217 42.3713 85.4739 42.3851L85.7595 42.462C85.8328 42.4812 85.9142 42.5077 86.004 42.5416C86.0946 42.5755 86.1811 42.6217 86.2635 42.6803C86.3468 42.738 86.4155 42.8121 86.4695 42.9028C86.5235 42.9934 86.5505 43.1046 86.5505 43.2365C86.5505 43.3885 86.5107 43.5258 86.431 43.6485C86.3523 43.7711 86.237 43.8686 86.085 43.941C85.9339 44.0133 85.7504 44.0494 85.5343 44.0494C85.3329 44.0494 85.1585 44.0169 85.0111 43.9519C84.8646 43.8869 84.7493 43.7963 84.665 43.68C84.5817 43.5638 84.5346 43.4287 84.5236 43.2749H84.8752C84.8843 43.3811 84.92 43.469 84.9823 43.5386C85.0454 43.6073 85.1251 43.6585 85.2212 43.6924C85.3183 43.7254 85.4226 43.7418 85.5343 43.7418C85.6643 43.7418 85.781 43.7208 85.8845 43.6787C85.9879 43.6356 86.0699 43.5761 86.1303 43.5001C86.1907 43.4232 86.2209 43.3335 86.2209 43.231C86.2209 43.1376 86.1948 43.0616 86.1427 43.003C86.0905 42.9444 86.0218 42.8968 85.9367 42.8602C85.8515 42.8236 85.7595 42.7915 85.6606 42.7641L85.3146 42.6652C85.0949 42.602 84.9209 42.5119 84.7928 42.3947C84.6646 42.2775 84.6005 42.1242 84.6005 41.9346C84.6005 41.7772 84.6431 41.6399 84.7282 41.5227C84.8143 41.4046 84.9296 41.313 85.0743 41.248C85.2198 41.1821 85.3823 41.1492 85.5618 41.1492C85.743 41.1492 85.9042 41.1817 86.0452 41.2467C86.1861 41.3107 86.2978 41.3986 86.3802 41.5103C86.4635 41.622 86.5075 41.7488 86.5121 41.8907H86.1825ZM88.2087 44V41.1876H89.906V41.4897H88.5492V42.44H89.8181V42.7421H88.5492V43.6979H89.928V44H88.2087ZM93.8812 42.0665H93.5406C93.5205 41.9685 93.4852 41.8825 93.4349 41.8083C93.3854 41.7342 93.325 41.6719 93.2536 41.6215C93.1831 41.5703 93.1048 41.5318 93.0188 41.5062C92.9327 41.4806 92.843 41.4677 92.7496 41.4677C92.5794 41.4677 92.4251 41.5108 92.2869 41.5968C92.1495 41.6829 92.0401 41.8097 91.9587 41.9772C91.8781 42.1448 91.8378 42.3503 91.8378 42.5938C91.8378 42.8373 91.8781 43.0429 91.9587 43.2104C92.0401 43.3779 92.1495 43.5047 92.2869 43.5908C92.4251 43.6768 92.5794 43.7199 92.7496 43.7199C92.843 43.7199 92.9327 43.707 93.0188 43.6814C93.1048 43.6558 93.1831 43.6178 93.2536 43.5674C93.325 43.5162 93.3854 43.4535 93.4349 43.3793C93.4852 43.3042 93.5205 43.2182 93.5406 43.1211H93.8812C93.8556 43.2649 93.8089 43.3935 93.7411 43.507C93.6734 43.6205 93.5891 43.7171 93.4884 43.7968C93.3877 43.8755 93.2747 43.9355 93.1493 43.9767C93.0247 44.0179 92.8915 44.0385 92.7496 44.0385C92.5098 44.0385 92.2965 43.9799 92.1097 43.8627C91.9229 43.7455 91.776 43.5789 91.6689 43.3628C91.5618 43.1468 91.5082 42.8904 91.5082 42.5938C91.5082 42.2972 91.5618 42.0408 91.6689 41.8248C91.776 41.6087 91.9229 41.4421 92.1097 41.3249C92.2965 41.2077 92.5098 41.1492 92.7496 41.1492C92.8915 41.1492 93.0247 41.1698 93.1493 41.2109C93.2747 41.2521 93.3877 41.3126 93.4884 41.3922C93.5891 41.4709 93.6734 41.5671 93.7411 41.6806C93.8089 41.7932 93.8556 41.9218 93.8812 42.0665ZM97.3754 41.1876H97.716V43.0497C97.716 43.242 97.6706 43.4136 97.58 43.5647C97.4903 43.7148 97.3635 43.8334 97.1996 43.9204C97.0357 44.0064 96.8435 44.0494 96.6229 44.0494C96.4022 44.0494 96.21 44.0064 96.0461 43.9204C95.8822 43.8334 95.755 43.7148 95.6643 43.5647C95.5746 43.4136 95.5298 43.242 95.5298 43.0497V41.1876H95.8703V43.0223C95.8703 43.1596 95.9005 43.2818 95.961 43.3889C96.0214 43.4951 96.1074 43.5789 96.2191 43.6402C96.3317 43.7006 96.4663 43.7308 96.6229 43.7308C96.7794 43.7308 96.914 43.7006 97.0266 43.6402C97.1392 43.5789 97.2252 43.4951 97.2848 43.3889C97.3452 43.2818 97.3754 43.1596 97.3754 43.0223V41.1876ZM99.4943 44V41.1876H100.445C100.664 41.1876 100.845 41.2251 100.986 41.3002C101.127 41.3744 101.231 41.4764 101.299 41.6064C101.366 41.7364 101.4 41.8843 101.4 42.05C101.4 42.2157 101.366 42.3626 101.299 42.4908C101.231 42.619 101.127 42.7197 100.987 42.7929C100.847 42.8652 100.668 42.9014 100.45 42.9014H99.681V42.5938H100.439C100.589 42.5938 100.71 42.5718 100.802 42.5279C100.894 42.4839 100.961 42.4217 101.002 42.3411C101.044 42.2596 101.065 42.1626 101.065 42.05C101.065 41.9374 101.044 41.839 101.002 41.7548C100.96 41.6705 100.893 41.6055 100.8 41.5598C100.708 41.5131 100.586 41.4897 100.434 41.4897H99.8349V44H99.4943ZM100.818 42.7366L101.51 44H101.115L100.434 42.7366H100.818ZM103.407 41.1876V44H103.066V41.1876H103.407ZM105.034 41.4897V41.1876H107.143V41.4897H106.259V44H105.918V41.4897H105.034ZM108.525 41.1876H108.915L109.695 42.5004H109.728L110.508 41.1876H110.898L109.882 42.841V44H109.542V42.841L108.525 41.1876ZM114.738 44H114.381L115.414 41.1876H115.765L116.798 44H116.441L115.601 41.6325H115.579L114.738 44ZM114.87 42.9014H116.309V43.2035H114.87V42.9014ZM120.18 41.1876H120.521V43.0497C120.521 43.242 120.475 43.4136 120.385 43.5647C120.295 43.7148 120.168 43.8334 120.004 43.9204C119.84 44.0064 119.648 44.0494 119.428 44.0494C119.207 44.0494 119.015 44.0064 118.851 43.9204C118.687 43.8334 118.56 43.7148 118.469 43.5647C118.379 43.4136 118.334 43.242 118.334 43.0497V41.1876H118.675V43.0223C118.675 43.1596 118.705 43.2818 118.766 43.3889C118.826 43.4951 118.912 43.5789 119.024 43.6402C119.136 43.7006 119.271 43.7308 119.428 43.7308C119.584 43.7308 119.719 43.7006 119.831 43.6402C119.944 43.5789 120.03 43.4951 120.089 43.3889C120.15 43.2818 120.18 43.1596 120.18 43.0223V41.1876ZM123.167 44H122.299V41.1876H123.205C123.478 41.1876 123.712 41.2439 123.906 41.3565C124.1 41.4682 124.248 41.6289 124.352 41.8385C124.455 42.0473 124.507 42.2972 124.507 42.5883C124.507 42.8813 124.455 43.1335 124.351 43.345C124.246 43.5555 124.094 43.7176 123.895 43.8311C123.695 43.9437 123.452 44 123.167 44ZM122.64 43.6979H123.145C123.377 43.6979 123.57 43.653 123.723 43.5633C123.876 43.4736 123.99 43.3459 124.065 43.1802C124.14 43.0145 124.178 42.8172 124.178 42.5883C124.178 42.3613 124.14 42.1658 124.066 42.0019C123.992 41.8371 123.881 41.7108 123.734 41.6229C123.587 41.5341 123.403 41.4897 123.183 41.4897H122.64V43.6979ZM126.517 41.1876V44H126.177V41.1876H126.517ZM128.144 41.4897V41.1876H130.254V41.4897H129.369V44H129.029V41.4897H128.144ZM133.416 41.8907C133.399 41.7515 133.332 41.6435 133.215 41.5666C133.098 41.4897 132.954 41.4513 132.784 41.4513C132.659 41.4513 132.55 41.4714 132.457 41.5117C132.365 41.552 132.292 41.6074 132.24 41.6779C132.189 41.7483 132.163 41.8284 132.163 41.9182C132.163 41.9932 132.181 42.0578 132.217 42.1118C132.253 42.1649 132.3 42.2093 132.357 42.245C132.414 42.2798 132.473 42.3086 132.535 42.3315C132.598 42.3535 132.655 42.3713 132.707 42.3851L132.993 42.462C133.066 42.4812 133.147 42.5077 133.237 42.5416C133.328 42.5755 133.414 42.6217 133.497 42.6803C133.58 42.738 133.649 42.8121 133.703 42.9028C133.757 42.9934 133.784 43.1046 133.784 43.2365C133.784 43.3885 133.744 43.5258 133.664 43.6485C133.585 43.7711 133.47 43.8686 133.318 43.941C133.167 44.0133 132.984 44.0494 132.767 44.0494C132.566 44.0494 132.392 44.0169 132.244 43.9519C132.098 43.8869 131.982 43.7963 131.898 43.68C131.815 43.5638 131.768 43.4287 131.757 43.2749H132.108C132.117 43.3811 132.153 43.469 132.215 43.5386C132.279 43.6073 132.358 43.6585 132.454 43.6924C132.551 43.7254 132.656 43.7418 132.767 43.7418C132.897 43.7418 133.014 43.7208 133.118 43.6787C133.221 43.6356 133.303 43.5761 133.363 43.5001C133.424 43.4232 133.454 43.3335 133.454 43.231C133.454 43.1376 133.428 43.0616 133.376 43.003C133.324 42.9444 133.255 42.8968 133.17 42.8602C133.085 42.8236 132.993 42.7915 132.894 42.7641L132.548 42.6652C132.328 42.602 132.154 42.5119 132.026 42.3947C131.898 42.2775 131.834 42.1242 131.834 41.9346C131.834 41.7772 131.876 41.6399 131.961 41.5227C132.047 41.4046 132.163 41.313 132.307 41.248C132.453 41.1821 132.615 41.1492 132.795 41.1492C132.976 41.1492 133.137 41.1817 133.278 41.2467C133.419 41.3107 133.531 41.3986 133.613 41.5103C133.697 41.622 133.741 41.7488 133.745 41.8907H133.416Z" fill="#FFE500"/>
</g>
<defs>
<linearGradient id="paint0_linear_5249_5299" x1="73.747" y1="1.08203" x2="73.747" y2="59.9189" gradientUnits="userSpaceOnUse">
<stop stop-color="#1C1E2E"/>
<stop offset="1" stop-color="#11121A"/>
</linearGradient>
<clipPath id="clip0_5249_5299">
<rect width="146" height="61" fill="white" transform="translate(0.74707)"/>
</clipPath>
</defs>
</svg>
