<svg width="339" height="141" viewBox="0 0 339 141" fill="none" xmlns="http://www.w3.org/2000/svg">
<rect x="2.5" y="2.5" width="334" height="136" rx="25.5" stroke="#E5453C" stroke-width="5"/>
<path d="M108.481 39.9316L108.96 42.8282C108.989 42.9995 109.484 46.0833 109.484 50.9628C109.484 55.6043 109.037 61.8703 107.323 68.8057C105.696 75.3984 102.732 83.2538 97.3708 90.9697C92.0058 98.6855 84.2488 106.274 72.9415 112.372L71.5583 113.118L70.175 112.372C58.8677 106.274 51.1138 98.6855 45.7458 90.9697C40.384 83.2538 37.4208 75.3984 35.7932 68.8057C34.0832 61.8703 33.6327 55.6075 33.6327 50.966C33.6327 46.0865 34.1276 42.9995 34.1561 42.8313L34.6352 39.9347C34.8002 38.9449 34.1276 38.009 33.1409 37.8472C32.151 37.6822 31.2151 38.3548 31.0533 39.3415L30.5742 42.2381C30.5203 42.568 30 45.839 30 50.966C30 55.8391 30.4695 62.3906 32.2653 69.6781C33.9753 76.6135 37.0972 84.8941 42.7635 93.0445C48.4266 101.195 56.6405 109.209 68.4491 115.573L70.6953 116.782C71.2346 117.074 71.8787 117.074 72.418 116.782L74.6611 115.573C86.4696 109.209 94.6867 101.198 100.347 93.0445C106.013 84.8909 109.132 76.6103 110.845 69.6781C112.641 62.3938 113.11 55.8391 113.11 50.966C113.11 45.839 112.593 42.568 112.536 42.2381L112.057 39.3446C111.892 38.3548 110.959 37.6854 109.969 37.8503C108.979 38.0153 108.31 38.9481 108.475 39.9379L108.481 39.9316Z" fill="#E5453C" stroke="#E5453C"/>
<path d="M44.5625 37.9568L71.5615 29.7143L99.1634 38.1409C100.122 38.4327 101.137 37.8934 101.432 36.9352C101.724 35.9771 101.184 34.9619 100.226 34.6668L72.0946 26.0785C71.7487 25.9738 71.3807 25.9738 71.0349 26.0785L43.5028 34.4828C42.5447 34.7747 42.0022 35.7899 42.2972 36.7512C42.5891 37.7094 43.6044 38.2519 44.5657 37.9568H44.5625Z" fill="#E5453C" stroke="#E5453C"/>
<path d="M31.2307 40.462L69.9431 116.009C70.2509 116.611 70.8664 116.992 71.5421 116.995C72.2211 117.002 72.8397 116.634 73.1602 116.034L96.7645 71.8869L96.7994 71.817L111.907 40.4207C112.342 39.5165 111.961 38.4315 111.057 37.9968C110.153 37.5622 109.068 37.9429 108.633 38.8471L93.5411 70.2085L71.5929 111.262L34.4636 38.8027C34.0068 37.9112 32.9122 37.5559 32.0175 38.0159C31.126 38.4727 30.7707 39.5673 31.2307 40.462Z" fill="#E5453C" stroke="#E5453C"/>
<path d="M49.7601 74.108H92.8063C93.8088 74.108 94.621 73.2958 94.621 72.2932C94.621 71.2907 93.8088 70.4785 92.8063 70.4785H49.7601C48.7575 70.4785 47.9453 71.2907 47.9453 72.2932C47.9453 73.2958 48.7575 74.108 49.7601 74.108Z" fill="#E5453C" stroke="#E5453C"/>
<path d="M156.276 69.2907H139.387C139.085 69.2907 138.826 69.3998 138.61 69.616C138.394 69.8323 138.285 70.0925 138.285 70.393V83.9488C138.285 84.2493 138.392 84.5095 138.61 84.7258C138.826 84.942 139.085 85.0511 139.387 85.0511H156.276V87.3378H139.387C138.446 87.3378 137.646 87.0087 136.987 86.3504C136.327 85.6921 136 84.8922 136 83.9508V70.3949C136 69.4534 136.329 68.6535 136.987 67.9952C137.646 67.337 138.446 67.0078 139.387 67.0078H156.276V69.2946V69.2907Z" fill="#E5453C" stroke="#E5453C"/>
<path d="M187.992 67V69.2867H171.724V76.0092H184.8V78.3246H171.724V85.0471H187.992V87.3338H169.438V67H187.992Z" fill="#E5453C" stroke="#E5453C"/>
<path d="M221.484 70.4183V76.3772C221.484 77.3187 221.155 78.1186 220.495 78.7787C219.837 79.437 219.037 79.7662 218.095 79.7662H214.989L221.371 87.3344H218.35L211.995 79.7662H204.539C204.369 79.7662 204.004 79.7279 203.437 79.6533V87.3344H201.148V67.0293H218.093C219.035 67.0293 219.835 67.3584 220.493 68.0167C221.151 68.6769 221.482 69.4768 221.482 70.4164L221.484 70.4183ZM204.539 77.4507H218.095C218.396 77.4507 218.65 77.3474 218.859 77.1407C219.065 76.9341 219.169 76.6796 219.169 76.3772V70.4183C219.169 70.1178 219.065 69.8595 218.859 69.6414C218.652 69.4251 218.398 69.3161 218.095 69.3161H204.539C204.237 69.3161 203.979 69.4251 203.762 69.6414C203.546 69.8576 203.437 70.1178 203.437 70.4183V76.3772C203.437 76.6796 203.544 76.9321 203.762 77.1407C203.979 77.3474 204.237 77.4507 204.539 77.4507Z" fill="#E5453C" stroke="#E5453C"/>
<path d="M233.631 67H253.965V69.2867H244.955V87.3338H242.667V69.2867H233.631V67Z" fill="#E5453C" stroke="#E5453C"/>
<path d="M266.275 87.3338V67H268.564V87.3338H266.275Z" fill="#E5453C" stroke="#E5453C"/>
<path d="M299.092 67H302.029L293.529 77.1669L302.058 87.3338H299.092L291.524 78.3246H284.972V87.3338H282.656V67H284.972V76.0092H291.524L299.092 67Z" fill="#E5453C" stroke="#E5453C"/>
<path d="M314.591 64.4583L312.469 59.6667H313.328L314.813 63.1823L316.297 59.6667H317.156L315.034 64.4583H314.591ZM312.313 64.4583V59.6667H313.146V64.4583H312.313ZM316.479 64.4583V59.6667H317.313V64.4583H316.479ZM309.188 64.4583V60.0833H310.021V64.4583H309.188ZM307.729 60.3958V59.6667H311.479V60.3958H307.729Z" fill="#E5453C"/>
<path d="M138.432 33L142.885 45.627H143.061L147.514 33H149.418L143.91 48H142.035L136.527 33H138.432ZM156.086 48V33H165.138V34.6113H157.902V39.6797H164.67V41.291H157.902V46.3887H165.256V48H156.086ZM172.744 48V33H177.812C178.984 33 179.946 33.2002 180.698 33.6006C181.45 33.9961 182.006 34.5405 182.368 35.2339C182.729 35.9272 182.91 36.7158 182.91 37.5996C182.91 38.4834 182.729 39.2671 182.368 39.9507C182.006 40.6343 181.452 41.1714 180.705 41.562C179.958 41.9478 179.003 42.1406 177.841 42.1406H173.74V40.5H177.783C178.583 40.5 179.228 40.3828 179.716 40.1484C180.209 39.9141 180.566 39.582 180.786 39.1523C181.01 38.7178 181.122 38.2002 181.122 37.5996C181.122 36.999 181.01 36.4741 180.786 36.0249C180.561 35.5757 180.202 35.229 179.709 34.9849C179.216 34.7358 178.564 34.6113 177.753 34.6113H174.56V48H172.744ZM179.804 41.2617L183.496 48H181.386L177.753 41.2617H179.804ZM192.084 33V48H190.268V33H192.084ZM200.057 48V33H209.051V34.6113H201.874V39.6797H208.377V41.291H201.874V48H200.057ZM218.31 33V48H216.494V33H218.31ZM226.283 48V33H235.336V34.6113H228.1V39.6797H234.867V41.291H228.1V46.3887H235.453V48H226.283ZM247.57 48H242.941V33H247.775C249.23 33 250.475 33.3003 251.51 33.9009C252.546 34.4966 253.339 35.3535 253.891 36.4717C254.443 37.585 254.718 38.918 254.718 40.4707C254.718 42.0332 254.44 43.3784 253.883 44.5063C253.327 45.6294 252.516 46.4937 251.452 47.0991C250.387 47.6997 249.093 48 247.57 48ZM244.757 46.3887H247.453C248.693 46.3887 249.721 46.1494 250.536 45.6709C251.352 45.1924 251.96 44.5112 252.36 43.6274C252.76 42.7437 252.961 41.6914 252.961 40.4707C252.961 39.2598 252.763 38.2173 252.367 37.3433C251.972 36.4644 251.381 35.7905 250.595 35.3218C249.809 34.8481 248.83 34.6113 247.658 34.6113H244.757V46.3887ZM272.229 48V33H277.473C278.518 33 279.379 33.1807 280.058 33.542C280.737 33.8984 281.242 34.3794 281.574 34.9849C281.906 35.5854 282.072 36.252 282.072 36.9844C282.072 37.6289 281.958 38.1611 281.728 38.5811C281.503 39.001 281.206 39.333 280.835 39.5771C280.468 39.8213 280.07 40.002 279.641 40.1191V40.2656C280.1 40.2949 280.561 40.4561 281.025 40.749C281.489 41.042 281.877 41.4619 282.189 42.0088C282.502 42.5557 282.658 43.2246 282.658 44.0156C282.658 44.7676 282.487 45.4438 282.146 46.0444C281.804 46.645 281.264 47.1211 280.527 47.4727C279.79 47.8242 278.83 48 277.648 48H272.229ZM274.045 46.3887H277.648C278.835 46.3887 279.677 46.1592 280.175 45.7002C280.678 45.2363 280.93 44.6748 280.93 44.0156C280.93 43.5078 280.8 43.0391 280.542 42.6094C280.283 42.1748 279.914 41.8281 279.436 41.5693C278.957 41.3057 278.391 41.1738 277.736 41.1738H274.045V46.3887ZM274.045 39.5918H277.414C277.961 39.5918 278.454 39.4844 278.894 39.2695C279.338 39.0547 279.689 38.752 279.948 38.3613C280.212 37.9707 280.344 37.5117 280.344 36.9844C280.344 36.3252 280.114 35.7661 279.655 35.3071C279.196 34.8433 278.469 34.6113 277.473 34.6113H274.045V39.5918ZM288.685 33H290.765L294.925 40.002H295.101L299.261 33H301.341L295.921 41.8184V48H294.105V41.8184L288.685 33Z" fill="#E5453C"/>
<path d="M139.928 96.5892C139.894 96.2982 139.754 96.0723 139.509 95.9115C139.264 95.7507 138.964 95.6703 138.607 95.6703C138.347 95.6703 138.119 95.7124 137.924 95.7966C137.731 95.8809 137.579 95.9967 137.47 96.1441C137.363 96.2915 137.309 96.459 137.309 96.6466C137.309 96.8036 137.347 96.9386 137.421 97.0515C137.498 97.1626 137.596 97.2554 137.714 97.3301C137.833 97.4028 137.957 97.4631 138.088 97.511C138.218 97.5569 138.337 97.5943 138.447 97.623L139.044 97.7838C139.197 97.824 139.367 97.8795 139.555 97.9503C139.745 98.0212 139.926 98.1179 140.098 98.2404C140.272 98.361 140.416 98.5161 140.529 98.7056C140.641 98.8951 140.698 99.1277 140.698 99.4034C140.698 99.7212 140.615 100.008 140.448 100.265C140.283 100.521 140.042 100.725 139.724 100.877C139.409 101.028 139.025 101.103 138.573 101.103C138.152 101.103 137.787 101.035 137.479 100.899C137.173 100.764 136.931 100.574 136.755 100.331C136.581 100.088 136.482 99.8054 136.459 99.4838H137.195C137.214 99.7059 137.288 99.8896 137.419 100.035C137.551 100.179 137.717 100.286 137.918 100.357C138.121 100.426 138.339 100.46 138.573 100.46C138.845 100.46 139.089 100.416 139.305 100.328C139.522 100.238 139.693 100.114 139.819 99.9547C139.946 99.7939 140.009 99.6063 140.009 99.3919C140.009 99.1966 139.954 99.0377 139.845 98.9152C139.736 98.7927 139.592 98.6931 139.414 98.6166C139.236 98.54 139.044 98.473 138.837 98.4155L138.114 98.2088C137.654 98.0767 137.29 97.8881 137.022 97.6431C136.754 97.398 136.62 97.0774 136.62 96.6811C136.62 96.3518 136.709 96.0646 136.887 95.8196C137.067 95.5726 137.309 95.3812 137.611 95.2453C137.915 95.1074 138.255 95.0385 138.63 95.0385C139.009 95.0385 139.346 95.1065 139.641 95.2424C139.936 95.3764 140.17 95.5602 140.342 95.7938C140.516 96.0273 140.608 96.2925 140.618 96.5892H139.928ZM144.295 101V95.1189H147.844V95.7507H145.007V97.7378H147.66V98.3696H145.007V100.368H147.89V101H144.295ZM156.286 96.9568H155.574C155.532 96.7519 155.458 96.572 155.353 96.4169C155.249 96.2618 155.123 96.1317 154.974 96.0264C154.826 95.9192 154.663 95.8387 154.483 95.7851C154.303 95.7315 154.115 95.7047 153.92 95.7047C153.564 95.7047 153.241 95.7947 152.952 95.9747C152.665 96.1546 152.436 96.4198 152.266 96.7701C152.097 97.1204 152.013 97.5502 152.013 98.0595C152.013 98.5687 152.097 98.9985 152.266 99.3488C152.436 99.6992 152.665 99.9643 152.952 100.144C153.241 100.324 153.564 100.414 153.92 100.414C154.115 100.414 154.303 100.387 154.483 100.334C154.663 100.28 154.826 100.201 154.974 100.095C155.123 99.9882 155.249 99.8571 155.353 99.702C155.458 99.545 155.532 99.3651 155.574 99.1622H156.286C156.233 99.4627 156.135 99.7317 155.993 99.9691C155.852 100.206 155.675 100.408 155.465 100.575C155.254 100.74 155.018 100.865 154.756 100.951C154.495 101.037 154.217 101.08 153.92 101.08C153.418 101.08 152.972 100.958 152.582 100.713C152.191 100.468 151.884 100.119 151.66 99.6676C151.436 99.2158 151.324 98.6797 151.324 98.0595C151.324 97.4392 151.436 96.9032 151.66 96.4514C151.884 95.9996 152.191 95.6511 152.582 95.4061C152.972 95.161 153.418 95.0385 153.92 95.0385C154.217 95.0385 154.495 95.0816 154.756 95.1677C155.018 95.2539 155.254 95.3802 155.465 95.5468C155.675 95.7114 155.852 95.9125 155.993 96.1498C156.135 96.3853 156.233 96.6543 156.286 96.9568ZM163.722 95.1189H164.434V99.0128C164.434 99.4149 164.34 99.7738 164.15 100.09C163.963 100.404 163.697 100.652 163.355 100.833C163.012 101.013 162.61 101.103 162.149 101.103C161.687 101.103 161.285 101.013 160.943 100.833C160.6 100.652 160.334 100.404 160.144 100.09C159.957 99.7738 159.863 99.4149 159.863 99.0128V95.1189H160.575V98.9554C160.575 99.2426 160.638 99.4981 160.765 99.7221C160.891 99.9442 161.071 100.119 161.304 100.248C161.54 100.374 161.821 100.437 162.149 100.437C162.476 100.437 162.757 100.374 162.993 100.248C163.228 100.119 163.408 99.9442 163.533 99.7221C163.659 99.4981 163.722 99.2426 163.722 98.9554V95.1189ZM168.283 101V95.1189H170.27C170.729 95.1189 171.106 95.1974 171.401 95.3544C171.696 95.5095 171.914 95.7229 172.056 95.9948C172.198 96.2666 172.268 96.5758 172.268 96.9223C172.268 97.2688 172.198 97.5761 172.056 97.8441C171.914 98.1121 171.697 98.3227 171.404 98.4758C171.111 98.6271 170.737 98.7027 170.281 98.7027H168.673V98.0595H170.258C170.572 98.0595 170.825 98.0135 171.016 97.9216C171.21 97.8297 171.349 97.6996 171.436 97.5311C171.524 97.3607 171.568 97.1578 171.568 96.9223C171.568 96.6868 171.524 96.481 171.436 96.3049C171.348 96.1288 171.207 95.9929 171.013 95.8971C170.82 95.7995 170.565 95.7507 170.247 95.7507H168.995V101H168.283ZM171.051 98.3581L172.498 101H171.671L170.247 98.3581H171.051ZM176.593 95.1189V101H175.881V95.1189H176.593ZM185.111 95.1189V101H184.421L181.217 96.3824H181.159V101H180.447V95.1189H181.136L184.352 99.748H184.41V95.1189H185.111ZM192.982 96.9568C192.919 96.7634 192.835 96.5902 192.732 96.437C192.63 96.2819 192.509 96.1498 192.367 96.0407C192.228 95.9316 192.069 95.8483 191.891 95.7909C191.713 95.7335 191.517 95.7047 191.305 95.7047C190.956 95.7047 190.64 95.7947 190.354 95.9747C190.069 96.1546 189.842 96.4198 189.674 96.7701C189.505 97.1204 189.421 97.5502 189.421 98.0595C189.421 98.5687 189.506 98.9985 189.677 99.3488C189.847 99.6992 190.078 99.9643 190.369 100.144C190.66 100.324 190.987 100.414 191.351 100.414C191.688 100.414 191.984 100.342 192.241 100.199C192.499 100.053 192.7 99.8485 192.844 99.5843C192.989 99.3182 193.062 99.0052 193.062 98.6453L193.28 98.6912H191.512V98.0595H193.751V98.6912C193.751 99.1756 193.648 99.5967 193.441 99.9547C193.236 100.313 192.953 100.59 192.591 100.788C192.231 100.983 191.818 101.08 191.351 101.08C190.83 101.08 190.372 100.958 189.978 100.713C189.586 100.468 189.279 100.119 189.059 99.6676C188.841 99.2158 188.732 98.6797 188.732 98.0595C188.732 97.5943 188.794 97.176 188.918 96.8046C189.045 96.4313 189.223 96.1135 189.453 95.8512C189.682 95.5889 189.954 95.3879 190.268 95.2482C190.582 95.1084 190.928 95.0385 191.305 95.0385C191.615 95.0385 191.904 95.0854 192.172 95.1792C192.442 95.2711 192.682 95.4023 192.893 95.5726C193.105 95.7411 193.282 95.9431 193.424 96.1786C193.566 96.4121 193.663 96.6715 193.717 96.9568H192.982ZM201.776 95.7507V95.1189H206.186V95.7507H204.337V101H203.625V95.7507H201.776ZM209.712 101V95.1189H210.424V97.7378H213.56V95.1189H214.272V101H213.56V98.3696H210.424V101H209.712ZM218.123 101V95.1189H221.673V95.7507H218.836V97.7378H221.489V98.3696H218.836V100.368H221.719V101H218.123ZM231.151 101L229.543 95.1189H230.266L231.495 99.9088H231.553L232.805 95.1189H233.609L234.861 99.9088H234.918L236.147 95.1189H236.871L235.263 101H234.528L233.23 96.3135H233.184L231.886 101H231.151ZM240.184 101V95.1189H243.734V95.7507H240.896V97.7378H243.55V98.3696H240.896V100.368H243.78V101H240.184ZM247.443 101V95.1189H249.499C249.909 95.1189 250.247 95.1898 250.513 95.3314C250.779 95.4712 250.977 95.6597 251.107 95.8971C251.238 96.1326 251.303 96.3939 251.303 96.6811C251.303 96.9338 251.258 97.1425 251.168 97.3071C251.08 97.4717 250.963 97.6019 250.817 97.6976C250.674 97.7934 250.518 97.8642 250.349 97.9101V97.9676C250.529 97.9791 250.71 98.0422 250.892 98.1571C251.074 98.272 251.226 98.4366 251.349 98.651C251.471 98.8654 251.532 99.1277 251.532 99.4378C251.532 99.7327 251.465 99.9978 251.331 100.233C251.197 100.469 250.986 100.655 250.697 100.793C250.408 100.931 250.031 101 249.568 101H247.443ZM248.155 100.368H249.568C250.033 100.368 250.364 100.278 250.559 100.098C250.756 99.9164 250.855 99.6963 250.855 99.4378C250.855 99.2387 250.804 99.055 250.702 98.8865C250.601 98.7161 250.456 98.5802 250.269 98.4787C250.081 98.3753 249.859 98.3237 249.603 98.3237H248.155V100.368ZM248.155 97.7034H249.476C249.691 97.7034 249.884 97.6613 250.056 97.577C250.231 97.4928 250.368 97.3741 250.47 97.221C250.573 97.0678 250.625 96.8878 250.625 96.6811C250.625 96.4226 250.535 96.2034 250.355 96.0235C250.175 95.8416 249.89 95.7507 249.499 95.7507H248.155V97.7034ZM257.012 101.08C256.633 101.08 256.295 101.015 255.999 100.885C255.704 100.755 255.469 100.574 255.295 100.342C255.123 100.109 255.029 99.838 255.014 99.5297H255.737C255.753 99.7193 255.818 99.8829 255.933 100.021C256.047 100.157 256.198 100.262 256.383 100.337C256.569 100.411 256.775 100.449 257.001 100.449C257.253 100.449 257.477 100.405 257.673 100.317C257.868 100.228 258.021 100.106 258.132 99.949C258.243 99.792 258.299 99.6101 258.299 99.4034C258.299 99.1871 258.245 98.9966 258.138 98.8319C258.031 98.6654 257.874 98.5352 257.667 98.4414C257.46 98.3476 257.208 98.3007 256.909 98.3007H256.438V97.6689H256.909C257.142 97.6689 257.347 97.6268 257.523 97.5426C257.701 97.4583 257.84 97.3396 257.94 97.1865C258.041 97.0333 258.092 96.8534 258.092 96.6466C258.092 96.4475 258.048 96.2743 257.96 96.1269C257.872 95.9795 257.747 95.8646 257.587 95.7823C257.428 95.7 257.24 95.6588 257.024 95.6588C256.821 95.6588 256.629 95.6961 256.449 95.7708C256.271 95.8435 256.126 95.9498 256.013 96.0895C255.9 96.2274 255.839 96.3939 255.829 96.5892H255.14C255.151 96.281 255.244 96.011 255.418 95.7794C255.593 95.5458 255.821 95.364 256.102 95.2338C256.385 95.1036 256.696 95.0385 257.035 95.0385C257.399 95.0385 257.711 95.1122 257.971 95.2596C258.232 95.4051 258.432 95.5975 258.572 95.8368C258.711 96.0761 258.781 96.3346 258.781 96.6122C258.781 96.9434 258.694 97.2257 258.52 97.4593C258.348 97.6929 258.113 97.8546 257.816 97.9446V97.9905C258.188 98.0518 258.478 98.2097 258.686 98.4644C258.895 98.7171 258.999 99.0301 258.999 99.4034C258.999 99.7231 258.912 100.01 258.738 100.265C258.566 100.518 258.33 100.717 258.032 100.862C257.733 101.008 257.393 101.08 257.012 101.08ZM268.472 101L266.864 95.1189H267.587L268.816 99.9088H268.874L270.126 95.1189H270.93L272.182 99.9088H272.239L273.468 95.1189H274.192L272.584 101H271.849L270.551 96.3135H270.505L269.207 101H268.472ZM282.191 98.0595C282.191 98.6797 282.079 99.2158 281.855 99.6676C281.631 100.119 281.324 100.468 280.933 100.713C280.543 100.958 280.097 101.08 279.595 101.08C279.093 101.08 278.647 100.958 278.257 100.713C277.866 100.468 277.559 100.119 277.335 99.6676C277.111 99.2158 276.999 98.6797 276.999 98.0595C276.999 97.4392 277.111 96.9032 277.335 96.4514C277.559 95.9996 277.866 95.6511 278.257 95.4061C278.647 95.161 279.093 95.0385 279.595 95.0385C280.097 95.0385 280.543 95.161 280.933 95.4061C281.324 95.6511 281.631 95.9996 281.855 96.4514C282.079 96.9032 282.191 97.4392 282.191 98.0595ZM281.502 98.0595C281.502 97.5502 281.417 97.1204 281.246 96.7701C281.078 96.4198 280.849 96.1546 280.56 95.9747C280.273 95.7947 279.951 95.7047 279.595 95.7047C279.239 95.7047 278.916 95.7947 278.627 95.9747C278.34 96.1546 278.111 96.4198 277.941 96.7701C277.773 97.1204 277.688 97.5502 277.688 98.0595C277.688 98.5687 277.773 98.9985 277.941 99.3488C278.111 99.6992 278.34 99.9643 278.627 100.144C278.916 100.324 279.239 100.414 279.595 100.414C279.951 100.414 280.273 100.324 280.56 100.144C280.849 99.9643 281.078 99.6992 281.246 99.3488C281.417 98.9985 281.502 98.5687 281.502 98.0595ZM285.814 101V95.1189H287.802C288.261 95.1189 288.638 95.1974 288.933 95.3544C289.228 95.5095 289.446 95.7229 289.588 95.9948C289.729 96.2666 289.8 96.5758 289.8 96.9223C289.8 97.2688 289.729 97.5761 289.588 97.8441C289.446 98.1121 289.229 98.3227 288.936 98.4758C288.643 98.6271 288.269 98.7027 287.813 98.7027H286.205V98.0595H287.79C288.104 98.0595 288.357 98.0135 288.548 97.9216C288.742 97.8297 288.881 97.6996 288.967 97.5311C289.056 97.3607 289.1 97.1578 289.1 96.9223C289.1 96.6868 289.056 96.481 288.967 96.3049C288.879 96.1288 288.739 95.9929 288.545 95.8971C288.352 95.7995 288.096 95.7507 287.779 95.7507H286.527V101H285.814ZM288.583 98.3581L290.03 101H289.203L287.779 98.3581H288.583ZM293.413 101V95.1189H294.125V100.368H296.859V101H293.413ZM302.202 101H300.387V95.1189H302.283C302.853 95.1189 303.341 95.2367 303.747 95.4721C304.153 95.7057 304.464 96.0417 304.681 96.4801C304.897 96.9166 305.005 97.4392 305.005 98.048C305.005 98.6606 304.896 99.188 304.678 99.6302C304.459 100.071 304.142 100.409 303.724 100.647C303.307 100.882 302.8 101 302.202 101ZM301.1 100.368H302.156C302.643 100.368 303.046 100.274 303.365 100.087C303.685 99.8992 303.923 99.6322 304.08 99.2856C304.237 98.9391 304.316 98.5266 304.316 98.048C304.316 97.5732 304.238 97.1645 304.083 96.8218C303.928 96.4772 303.696 96.213 303.388 96.0292C303.08 95.8435 302.696 95.7507 302.237 95.7507H301.1V100.368Z" fill="#E5453C"/>
</svg>
