<svg width="31" height="31" viewBox="0 0 31 31" fill="none" xmlns="http://www.w3.org/2000/svg">
<g clip-path="url(#clip0_4022_6189)">
<path d="M30.5681 15.3358C30.581 18.2604 29.7264 21.1233 28.1123 23.5623C26.4982 26.0012 24.1971 27.9068 21.5 29.0381C18.8029 30.1693 15.831 30.4754 12.96 29.9176C10.0889 29.3599 7.44775 27.9633 5.37043 25.9045C3.2931 23.8457 1.87292 21.2171 1.28945 18.3512C0.705984 15.4853 0.985442 12.5107 2.09249 9.80358C3.19953 7.09647 5.08444 4.77843 7.50888 3.14256C9.93331 1.50669 12.7884 0.626462 15.7131 0.613183C19.6352 0.595788 23.4037 2.1371 26.1895 4.89808C28.9753 7.65906 30.5503 11.4136 30.5681 15.3358Z" fill="#8DC63F"/>
<path d="M29.4542 15.3386C29.4665 18.043 28.6766 20.6903 27.1843 22.9458C25.6921 25.2013 23.5645 26.9636 21.0707 28.0099C18.5768 29.0562 15.8287 29.3395 13.1739 28.824C10.519 28.3085 8.07666 27.0173 6.15563 25.1137C4.23461 23.2101 2.9212 20.7796 2.3815 18.1296C1.8418 15.4795 2.10004 12.7289 3.12357 10.2257C4.14711 7.72239 5.88996 5.57885 8.13174 4.06609C10.3735 2.55333 13.0135 1.7393 15.7179 1.72695C17.5136 1.71875 19.2934 2.06432 20.9555 2.74393C22.6177 3.42354 24.1297 4.42389 25.4052 5.68785C26.6807 6.95181 27.6948 8.45463 28.3896 10.1105C29.0843 11.7664 29.4461 13.5429 29.4542 15.3386Z" fill="#F9E988"/>
<path d="M16.0303 2.6137C16.8996 2.45852 17.7895 2.45852 18.6588 2.6137C19.5364 2.75277 20.3848 3.03712 21.1689 3.45508C21.948 3.88356 22.6226 4.46473 23.2926 5.01319C23.9626 5.56164 24.631 6.11633 25.2667 6.72711C25.915 7.32763 26.4808 8.01135 26.9495 8.76044C27.4328 9.50446 27.8286 10.3018 28.129 11.1366C28.7135 12.8039 28.8799 14.5893 28.6136 16.336H28.5263C28.2697 14.6673 27.8405 13.0297 27.2455 11.4497C26.9604 10.6684 26.6247 9.90639 26.2406 9.16866C25.8368 8.43307 25.3926 7.72044 24.9099 7.03405C24.4176 6.33933 23.8143 5.73029 23.1243 5.23132C22.431 4.7374 21.6332 4.41643 20.8604 4.1126C20.0876 3.80877 19.3148 3.50649 18.5123 3.27434C17.7099 3.04218 16.8888 2.86923 16.0334 2.70095L16.0303 2.6137Z" fill="white"/>
<path d="M22.714 10.5085C21.7215 10.2203 20.6885 9.81361 19.6508 9.40227C19.5916 9.14051 19.3594 8.81486 18.892 8.41755C18.2111 7.82702 16.9334 7.8426 15.8287 8.10592C14.6103 7.81923 13.4059 7.71795 12.2451 7.9953C2.79517 10.5973 8.15506 16.9591 4.68359 23.3473C5.17751 24.3944 10.5016 30.5146 18.2049 28.8677C18.2049 28.8677 15.5717 22.5371 21.5158 19.4988C26.3382 17.0261 29.8237 12.4484 22.714 10.5085Z" fill="#8BC53F"/>
<path d="M23.8811 14.67C23.8821 14.7836 23.8492 14.8948 23.7869 14.9897C23.7245 15.0846 23.6354 15.1588 23.5308 15.2029C23.4262 15.2471 23.3108 15.2592 23.1993 15.2377C23.0879 15.2163 22.9852 15.1622 22.9045 15.0824C22.8238 15.0025 22.7686 14.9005 22.7459 14.7893C22.7233 14.678 22.7341 14.5625 22.7771 14.4575C22.8201 14.3524 22.8934 14.2625 22.9876 14.1991C23.0818 14.1357 23.1926 14.1016 23.3062 14.1013C23.3813 14.1009 23.4557 14.1153 23.5252 14.1437C23.5948 14.172 23.6581 14.2138 23.7114 14.2666C23.7648 14.3194 23.8073 14.3822 23.8364 14.4514C23.8655 14.5207 23.8807 14.5949 23.8811 14.67Z" fill="white"/>
<path d="M15.8291 8.10293C16.5178 8.15279 19.0092 8.96612 19.6511 9.40239C19.1198 7.84428 17.314 7.64173 15.8291 8.10293Z" fill="#009345"/>
<path d="M16.4841 12.0326C16.4841 12.5565 16.3287 13.0686 16.0377 13.5042C15.7466 13.9398 15.333 14.2793 14.849 14.4797C14.365 14.6802 13.8324 14.7327 13.3186 14.6305C12.8047 14.5283 12.3328 14.276 11.9623 13.9055C11.5919 13.5351 11.3396 13.0631 11.2374 12.5493C11.1352 12.0355 11.1877 11.5029 11.3882 11.0189C11.5886 10.5349 11.9281 10.1212 12.3637 9.83019C12.7993 9.53914 13.3114 9.38379 13.8353 9.38379C14.5378 9.38379 15.2115 9.66286 15.7083 10.1596C16.205 10.6563 16.4841 11.3301 16.4841 12.0326Z" fill="white"/>
<path d="M15.7003 12.0556C15.7006 12.4236 15.5917 12.7835 15.3875 13.0896C15.1832 13.3957 14.8928 13.6344 14.5529 13.7755C14.213 13.9165 13.8389 13.9536 13.4779 13.882C13.1169 13.8104 12.7853 13.6333 12.5249 13.3732C12.2646 13.1131 12.0873 12.7816 12.0154 12.4207C11.9434 12.0598 11.9802 11.6856 12.121 11.3456C12.2617 11.0056 12.5002 10.7149 12.8061 10.5104C13.1121 10.3059 13.4719 10.1968 13.8399 10.1968C14.3329 10.1972 14.8056 10.3931 15.1544 10.7416C15.5031 11.09 15.6994 11.5626 15.7003 12.0556Z" fill="#58595B"/>
<path d="M26.0232 15.8358C23.8808 17.3456 21.4439 18.4846 17.9881 18.4846C16.3707 18.4846 16.0435 16.7707 14.9747 17.6089C14.4215 18.0437 12.4817 19.0112 10.9314 18.9427C9.38106 18.8741 6.8803 17.9626 6.18694 14.6672C5.91115 17.9626 5.76936 20.3902 4.53223 23.173C6.99715 27.1196 12.8728 30.1626 18.2046 28.8538C17.6328 24.8526 21.1292 20.9324 23.1002 18.9271C23.845 18.1683 25.2816 16.9281 26.0232 15.8296V15.8358Z" fill="#8BC53F"/>
<path d="M25.9388 15.9356C25.2563 16.5225 24.4947 17.0108 23.6765 17.3862C22.8608 17.7737 22.0105 18.0836 21.1367 18.3117C20.2642 18.5376 19.3512 18.7074 18.4272 18.6233C17.5032 18.5392 16.5575 18.2244 15.9482 17.5326L15.9778 17.4983C16.732 17.986 17.5936 18.1574 18.4537 18.1823C19.3269 18.2077 20.2002 18.1351 21.0573 17.9658C21.9231 17.7853 22.7702 17.5245 23.5876 17.1867C24.4183 16.8695 25.2003 16.4373 25.9108 15.9028L25.9388 15.9356Z" fill="#58595B"/>
</g>
<defs>
<clipPath id="clip0_4022_6189">
<rect width="30" height="30" fill="white" transform="translate(0.5 0.5)"/>
</clipPath>
</defs>
</svg>
