<svg width="30" height="31" viewBox="0 0 30 31" fill="none" xmlns="http://www.w3.org/2000/svg">
<path d="M29.9897 15.5062V15.4481C29.9601 7.21722 23.2309 0.5 14.9948 0.5C6.7588 0.5 0 7.21722 0 15.5062C0 23.7963 6.72822 30.5 14.9948 30.5C18.7881 30.5025 22.4363 29.064 25.1805 26.4838C25.4508 26.2405 25.6119 25.9014 25.6284 25.5411C25.6449 25.1808 25.5154 24.8287 25.2685 24.5624C25.0216 24.2961 24.6774 24.1374 24.3117 24.1211C23.946 24.1049 23.5887 24.2324 23.3184 24.4757L23.2889 24.5048C22.1048 25.6138 20.7056 26.4756 19.175 27.0385C17.6445 27.6014 16.0144 27.8538 14.3824 27.7806C12.7504 27.7073 11.1502 27.3099 9.67803 26.6122C8.20581 25.9145 6.89187 24.9309 5.8151 23.7204L12.2207 13.5999V18.2831C12.2207 20.5208 13.1064 21.249 13.8508 21.4526C14.5952 21.6562 15.7118 21.5087 16.9212 19.619L20.4356 13.9968C20.5295 13.8326 20.6381 13.6768 20.7583 13.5303V16.382C20.7583 18.4753 21.6144 20.1624 23.0896 20.9758C23.7705 21.3411 24.5392 21.5179 25.3139 21.4873C26.0886 21.4568 26.8405 21.22 27.4896 20.8023C29.1936 19.7125 30.1088 17.8042 29.9897 15.5062ZM26.0925 18.4514C25.8559 18.612 25.58 18.7074 25.2934 18.7276C25.0068 18.7479 24.7199 18.6923 24.4624 18.5667C23.872 18.2187 23.5166 17.4343 23.5166 16.3581V13.0618C23.5166 11.4931 22.8966 10.3577 21.8348 10.0689C20.0328 9.53283 18.6768 11.7258 18.1739 12.5403L14.9948 17.5704V11.3768C14.9653 9.95252 14.4919 9.10898 13.6062 8.84615C13.0157 8.67266 12.13 8.76096 11.2749 10.0408L4.16072 21.2656C3.2143 19.4888 2.71832 17.5128 2.71512 15.5062C2.71512 8.72979 8.23392 3.23322 14.9948 3.23322C21.7557 3.23322 27.2745 8.72979 27.2745 15.5062V15.5654C27.3452 16.8723 26.9192 17.9216 26.0936 18.4431L26.0925 18.4514Z" fill="white"/>
</svg>
