<svg width="25" height="24" viewBox="0 0 25 24" fill="none" xmlns="http://www.w3.org/2000/svg">
<g clip-path="url(#clip0_2144_8338)">
<path d="M1.24658 16.1739C2.9421 20.7434 7.34061 24 12.5002 24C17.6598 24 22.0583 20.7434 23.7538 16.1739L12.5002 15.1304L1.24658 16.1739Z" fill="#FFDA44"/>
<path d="M12.5002 0C7.34061 0 2.9421 3.2565 1.24658 7.82611L12.5002 8.86955L23.7538 7.82606C22.0583 3.2565 17.6598 0 12.5002 0Z" fill="black"/>
<path d="M1.24639 7.82611C0.764047 9.1261 0.5 10.5322 0.5 12C0.5 13.4678 0.764047 14.8739 1.24639 16.1739H23.7537C24.236 14.8739 24.5 13.4678 24.5 12C24.5 10.5322 24.236 9.1261 23.7536 7.82611H1.24639Z" fill="#D80027"/>
</g>
<defs>
<clipPath id="clip0_2144_8338">
<rect width="24" height="24" fill="white" transform="translate(0.5)"/>
</clipPath>
</defs>
</svg>
