<svg width="18" height="14" viewBox="0 0 18 14" fill="none" xmlns="http://www.w3.org/2000/svg">
<path d="M15.1869 1.15139C14.0264 0.613501 12.7855 0.222589 11.4882 0C11.3288 0.285351 11.1427 0.669154 11.0144 0.974468C9.63529 0.769018 8.26889 0.769018 6.91517 0.974468C6.78686 0.669154 6.5965 0.285351 6.43575 0C5.13703 0.222589 3.89472 0.614937 2.73419 1.15423C0.393406 4.65827 -0.241143 8.07528 0.0761326 11.4438C1.62867 12.5923 3.13326 13.29 4.61246 13.7465C4.97768 13.2486 5.30341 12.7193 5.58402 12.1614C5.04959 11.9602 4.53772 11.712 4.05407 11.4238C4.18238 11.3296 4.30789 11.2312 4.42915 11.1299C7.37909 12.4967 10.5843 12.4967 13.499 11.1299C13.6217 11.2312 13.7472 11.3296 13.8741 11.4238C13.389 11.7134 12.8757 11.9617 12.3413 12.1628C12.6219 12.7193 12.9462 13.25 13.3129 13.7479C14.7935 13.2914 16.2995 12.5937 17.852 11.4438C18.2243 7.53883 17.216 4.15321 15.1869 1.15139ZM5.98591 9.37217C5.10036 9.37217 4.37415 8.55322 4.37415 7.55594C4.37415 6.55866 5.08486 5.7383 5.98591 5.7383C6.88698 5.7383 7.61318 6.55723 7.59767 7.55594C7.59907 8.55322 6.88698 9.37217 5.98591 9.37217ZM11.9422 9.37217C11.0567 9.37217 10.3305 8.55322 10.3305 7.55594C10.3305 6.55866 11.0412 5.7383 11.9422 5.7383C12.8433 5.7383 13.5695 6.55723 13.554 7.55594C13.554 8.55322 12.8433 9.37217 11.9422 9.37217Z" fill="white"/>
</svg>
