<svg width="34" height="26" viewBox="0 0 34 26" fill="none" xmlns="http://www.w3.org/2000/svg">
<path d="M28.7824 2.11381C26.6154 1.13542 24.2916 0.414584 21.8619 0.00173186C21.8176 -0.00623606 21.7734 0.0136762 21.7506 0.0535017C21.4517 0.576534 21.1207 1.25887 20.8889 1.79519C18.2756 1.41022 15.6757 1.41022 13.116 1.79519C12.8841 1.24695 12.541 0.576534 12.2408 0.0535017C12.218 0.015005 12.1738 -0.00490729 12.1296 0.00173186C9.70121 0.413265 7.37738 1.1341 5.20899 2.11381C5.19022 2.12177 5.17413 2.13506 5.16345 2.15231C0.755638 8.63191 -0.451846 14.9522 0.140505 21.1942C0.143185 21.2248 0.160607 21.254 0.184731 21.2725C3.09288 23.374 5.90992 24.6497 8.67465 25.4954C8.71889 25.5086 8.76577 25.4927 8.79393 25.4569C9.44793 24.5781 10.0309 23.6515 10.5308 22.677C10.5603 22.62 10.5321 22.5523 10.4718 22.5297C9.5471 22.1845 8.6666 21.7637 7.81962 21.2858C7.75262 21.2473 7.74726 21.153 7.80889 21.1079C7.98713 20.9765 8.16541 20.8397 8.3356 20.7017C8.36639 20.6765 8.4093 20.6712 8.4455 20.6871C14.0098 23.1868 20.0339 23.1868 25.5325 20.6871C25.5687 20.6698 25.6116 20.6752 25.6438 20.7004C25.814 20.8384 25.9922 20.9765 26.1718 21.1079C26.2334 21.153 26.2294 21.2473 26.1624 21.2858C25.3154 21.773 24.4349 22.1845 23.5089 22.5284C23.4486 22.5509 23.4218 22.62 23.4513 22.677C23.9619 23.6501 24.5448 24.5767 25.1868 25.4555C25.2136 25.4927 25.2618 25.5086 25.3061 25.4954C28.0842 24.6497 30.9012 23.374 33.8094 21.2725C33.8348 21.254 33.8509 21.2261 33.8536 21.1955C34.5625 13.9791 32.6662 7.71063 28.8266 2.15363C28.8173 2.13506 28.8012 2.12177 28.7824 2.11381ZM11.3617 17.3935C9.68646 17.3935 8.3061 15.8802 8.3061 14.0216C8.3061 12.1631 9.65969 10.6498 11.3617 10.6498C13.0771 10.6498 14.4441 12.1764 14.4172 14.0216C14.4172 15.8802 13.0637 17.3935 11.3617 17.3935ZM22.6592 17.3935C20.984 17.3935 19.6037 15.8802 19.6037 14.0216C19.6037 12.1631 20.9572 10.6498 22.6592 10.6498C24.3746 10.6498 25.7416 12.1764 25.7148 14.0216C25.7148 15.8802 24.3746 17.3935 22.6592 17.3935Z" fill="white"/>
</svg>
