<svg width="21" height="17" viewBox="0 0 21 17" fill="none" xmlns="http://www.w3.org/2000/svg">
<path d="M17.789 2.17093C16.4296 1.54088 14.9761 1.08299 13.4565 0.822266C13.2699 1.15651 13.0519 1.60607 12.9016 1.9637C11.2862 1.72305 9.68567 1.72305 8.10001 1.9637C7.94972 1.60607 7.72674 1.15651 7.53844 0.822266C6.01721 1.08299 4.56204 1.54257 3.20267 2.17426C0.460812 6.27868 -0.28246 10.2812 0.0891771 14.2268C1.90772 15.5721 3.67011 16.3893 5.40275 16.9241C5.83055 16.3408 6.21209 15.7208 6.54078 15.0674C5.91478 14.8318 5.31521 14.541 4.74869 14.2034C4.89898 14.0931 5.046 13.9778 5.18803 13.8591C8.64342 15.4601 12.3978 15.4601 15.8119 13.8591C15.9556 13.9778 16.1026 14.0931 16.2512 14.2034C15.683 14.5426 15.0818 14.8334 14.4558 15.0691C14.7845 15.7208 15.1644 16.3425 15.5939 16.9257C17.3282 16.391 19.0922 15.5738 20.9107 14.2268C21.3468 9.65279 20.1658 5.68708 17.789 2.17093ZM7.01153 11.8003C5.97426 11.8003 5.12361 10.841 5.12361 9.67284C5.12361 8.50469 5.95609 7.54376 7.01153 7.54376C8.06699 7.54376 8.91761 8.503 8.89945 9.67284C8.90109 10.841 8.06699 11.8003 7.01153 11.8003ZM13.9884 11.8003C12.9511 11.8003 12.1005 10.841 12.1005 9.67284C12.1005 8.50469 12.9329 7.54376 13.9884 7.54376C15.0438 7.54376 15.8945 8.503 15.8763 9.67284C15.8763 10.841 15.0438 11.8003 13.9884 11.8003Z" fill="#FBFF3A"/>
</svg>
