<svg width="25" height="24" viewBox="0 0 25 24" fill="none" xmlns="http://www.w3.org/2000/svg">
<g clip-path="url(#clip0_2144_8326)">
<path d="M12.5 24C19.1274 24 24.5 18.6274 24.5 12C24.5 5.37258 19.1274 0 12.5 0C5.87258 0 0.5 5.37258 0.5 12C0.5 18.6274 5.87258 24 12.5 24Z" fill="#F0F0F0"/>
<path d="M24.4999 12C24.4999 6.84043 21.2434 2.44191 16.6738 0.746399V23.2537C21.2434 21.5581 24.4999 17.1596 24.4999 12V12Z" fill="#D80027"/>
<path d="M0.5 12C0.5 17.1596 3.75655 21.5581 8.32611 23.2536V0.746399C3.75655 2.44191 0.5 6.84043 0.5 12Z" fill="#0052B4"/>
</g>
<defs>
<clipPath id="clip0_2144_8326">
<rect width="24" height="24" fill="white" transform="translate(0.5)"/>
</clipPath>
</defs>
</svg>
