<svg width="25" height="24" viewBox="0 0 25 24" fill="none" xmlns="http://www.w3.org/2000/svg">
<g clip-path="url(#clip0_2144_8342)">
<path d="M1.24639 7.82611C0.764047 9.12614 0.5 10.5322 0.5 12C0.5 13.4678 0.764047 14.874 1.24639 16.1739L12.5 17.2174L23.7536 16.1739C24.236 14.874 24.5 13.4678 24.5 12C24.5 10.5322 24.236 9.12614 23.7536 7.82611L12.5 6.78262L1.24639 7.82611Z" fill="#F0F0F0"/>
<path d="M12.5001 0C7.34061 0 2.94205 3.2565 1.24658 7.82611H23.7538C22.0582 3.2565 17.6598 0 12.5001 0V0Z" fill="#D80027"/>
<path d="M12.5001 24C17.6598 24 22.0582 20.7435 23.7538 16.1739H1.24658C2.94205 20.7435 7.34061 24 12.5001 24V24Z" fill="#6DA544"/>
</g>
<defs>
<clipPath id="clip0_2144_8342">
<rect width="24" height="24" fill="white" transform="translate(0.5)"/>
</clipPath>
</defs>
</svg>
