<svg width="151" height="19" viewBox="0 0 151 19" fill="none" xmlns="http://www.w3.org/2000/svg">
<path fill-rule="evenodd" clip-rule="evenodd" d="M3.37255 8.99394L0 6.10319L7.22688 0.000488281H27.4622L22.6442 4.17602H8.99345L3.37255 8.99394ZM3.37255 9.31427L0 12.205L7.22688 18.3077H27.4622L22.6442 14.1322H8.99345L3.37255 9.31427Z" fill="white"/>
<path d="M35.6529 -0.000244141L43.3616 6.54045L51.0703 -0.000244141H57.8154L45.61 10.3203V18.3079H41.1132V10.3203L28.9078 -0.000244141H35.6529Z" fill="white"/>
<path fill-rule="evenodd" clip-rule="evenodd" d="M59.7424 -0.000244141H79.6564L84.3138 4.01469V6.90544L82.0195 9.23411L84.3138 11.5628V14.7747L79.9776 18.4685H59.7424V7.38724H78.6929L80.2988 5.62066L78.2111 3.85409H59.7424V-0.000244141ZM64.2391 11.081V14.6141H78.6929L80.62 12.8475L78.6929 11.081H64.2391Z" fill="white"/>
<path fill-rule="evenodd" clip-rule="evenodd" d="M88.9707 -0.000244141H109.527L114.184 4.33589V7.22664L109.688 11.4022L116.754 18.3079H110.491L103.103 11.5628H93.1462V18.3882H88.9707V7.70843H107.921L109.848 5.94186L107.921 4.17529H88.9707V-0.000244141Z" fill="white"/>
<path fill-rule="evenodd" clip-rule="evenodd" d="M126.331 -0.000244141L116.556 8.99866L126.331 18.3079H141.225L151 8.99866L141.225 -0.000244141H126.331ZM122.297 8.99866L126.706 13.2822L135.955 4.03375H127.727L122.297 8.99866ZM140.556 4.6985L130.981 14.2739H139.829L145.259 8.99866L140.556 4.6985Z" fill="#FBFF3A"/>
</svg>
