<svg width="25" height="24" viewBox="0 0 25 24" fill="none" xmlns="http://www.w3.org/2000/svg">
<g clip-path="url(#clip0_2144_8318)">
<path d="M12.5 24C19.1274 24 24.5 18.6274 24.5 12C24.5 5.37258 19.1274 0 12.5 0C5.87258 0 0.5 5.37258 0.5 12C0.5 18.6274 5.87258 24 12.5 24Z" fill="#F0F0F0"/>
<path d="M23.7536 16.1739C24.236 14.8739 24.5 13.4678 24.5 12C24.5 10.5322 24.236 9.1261 23.7536 7.82611H1.24639C0.764047 9.1261 0.5 10.5322 0.5 12C0.5 13.4678 0.764047 14.8739 1.24639 16.1739L12.5 17.2174L23.7536 16.1739Z" fill="#0052B4"/>
<path d="M12.4999 24C17.6595 24 22.058 20.7435 23.7536 16.1739H1.24634C2.94185 20.7435 7.34037 24 12.4999 24Z" fill="#D80027"/>
</g>
<defs>
<clipPath id="clip0_2144_8318">
<rect width="24" height="24" fill="white" transform="translate(0.5)"/>
</clipPath>
</defs>
</svg>
