<svg width="25" height="24" viewBox="0 0 25 24" fill="none" xmlns="http://www.w3.org/2000/svg">
<g clip-path="url(#clip0_2144_8330)">
<path d="M12.5 24C19.1274 24 24.5 18.6274 24.5 12C24.5 5.37258 19.1274 0 12.5 0C5.87258 0 0.5 5.37258 0.5 12C0.5 18.6274 5.87258 24 12.5 24Z" fill="#D80027"/>
<path d="M12.0087 9.8056L12.9933 11.1624L14.5879 10.6454L13.6017 12.001L14.5862 13.3577L12.9922 12.8387L12.0061 14.1944L12.0071 12.5181L10.4131 11.9991L12.0077 11.482L12.0087 9.8056Z" fill="#F0F0F0"/>
<path d="M9.3215 15.3913C7.44856 15.3913 5.93018 13.8729 5.93018 12C5.93018 10.1271 7.44856 8.60867 9.3215 8.60867C9.90547 8.60867 10.4549 8.75638 10.9347 9.0163C10.1821 8.28027 9.15284 7.82605 8.01715 7.82605C5.71193 7.82605 3.84326 9.69477 3.84326 11.9999C3.84326 14.3051 5.71198 16.1738 8.01715 16.1738C9.15293 16.1738 10.1821 15.7196 10.9347 14.9836C10.4549 15.2436 9.90547 15.3913 9.3215 15.3913V15.3913Z" fill="#F0F0F0"/>
</g>
<defs>
<clipPath id="clip0_2144_8330">
<rect width="24" height="24" fill="white" transform="translate(0.5)"/>
</clipPath>
</defs>
</svg>
